<?xml version="1.0" standalone="no"?>
<!DOCTYPE svg PUBLIC "-//W3C//DTD SVG 1.1//EN" "http://www.w3.org/Graphics/SVG/1.1/DTD/svg11.dtd" >
<svg xmlns="http://www.w3.org/2000/svg" xmlns:xlink="http://www.w3.org/1999/xlink" version="1.1">
<metadata>
Created by FontForge 20170731 at Fri Aug 11 03:39:22 2023
 By Aleksey,,,
(c) 1998-2012 Typodermic Fonts Inc. See attached license agreement. If agreement is missing visit typodermicfonts.com for more info.
</metadata>
<defs>
<font id="HurryUp-Regular" horiz-adv-x="1337" >
  <font-face 
    font-family="Hurry Up"
    font-weight="400"
    font-stretch="normal"
    units-per-em="2048"
    panose-1="4 1 4 0 0 0 0 0 0 0"
    ascent="1503"
    descent="-545"
    x-height="1354"
    cap-height="1274"
    bbox="-145 -545 2413 1880"
    underline-thickness="40"
    underline-position="-333"
    unicode-range="U+0020-2122"
  />
<missing-glyph horiz-adv-x="925" 
d="M659 0h-395q-198 0 -198 172v999q0 175 198 175h395q201 0 201 -175v-999q0 -172 -201 -172zM754 172v999q0 80 -95 80h-395q-94 0 -94 -80v-999q0 -80 94 -80h395q95 0 95 80z" />
    <glyph glyph-name=".notdef" horiz-adv-x="925" 
d="M659 0h-395q-198 0 -198 172v999q0 175 198 175h395q201 0 201 -175v-999q0 -172 -201 -172zM754 172v999q0 80 -95 80h-395q-94 0 -94 -80v-999q0 -80 94 -80h395q95 0 95 80z" />
    <glyph glyph-name=".null" horiz-adv-x="0" 
 />
    <glyph glyph-name="nonmarkingreturn" horiz-adv-x="682" 
 />
    <glyph glyph-name="space" unicode=" " horiz-adv-x="552" 
 />
    <glyph glyph-name="exclam" unicode="!" horiz-adv-x="538" 
d="M379 1468q0 -36 1 -126t1 -152q0 -680 -16 -944q-92 -10 -127 -10q-45 0 -76 10q4 262 4 338q0 168 -3 279.5t-11 194.5t-14.5 124t-23 124.5t-26.5 139.5q0 29 125 29q148 0 166 -7zM389 -20q0 -47 -52.5 -83t-103.5 -36q-114 0 -114 155q0 109 104 109q63 0 114.5 -43
t51.5 -102z" />
    <glyph glyph-name="quotedbl" unicode="&#x22;" horiz-adv-x="661" 
d="M616 1561q-58 -259 -61 -474q-61 23 -80 23q-1 0 -11 -2t-36 -6t-55 -8q12 44 12 127q0 134 -25 278q-48 -233 -51 -412q-61 23 -80 23q-1 0 -11 -2t-36 -6t-55 -8q12 44 12 137q0 194 -30 317q49 15 147 15q20 0 122 -5.5t124 -5.5q74 0 114 9z" />
    <glyph glyph-name="numbersign" unicode="#" horiz-adv-x="995" 
d="M166 494q19 65 41 170q-118 -4 -152 -9q19 74 19 144v20q78 -4 168 -4l32 178q-139 -4 -165 -8q20 67 20 150v16q2 -2 31 -2h112q27 0 29 -2q16 121 18 153q36 -4 58 -4q59 0 108 15l-34 -168h139q18 0 20 -2q4 29 8.5 60t8.5 61.5t6 44.5q36 -4 57 -4q65 0 111 14
q-6 -24 -39 -176h158q20 0 22 2q-16 -62 -29 -166q-50 6 -182 10l-33 -176q81 0 191 4q-26 -98 -29 -166q-26 3 -93 7t-97 6q-27 -157 -27 -160q-57 2 -131 2q-23 0 -35 -4q15 45 41 166h-158q-10 -45 -26 -170q-54 4 -76 4q-48 0 -92 -6zM586 993q-2 2 -21 2h-143
q-18 -78 -35 -182q2 -2 21 -2h143q5 34 17.5 94.5t17.5 87.5z" />
    <glyph glyph-name="dollar" unicode="$" horiz-adv-x="667" 
d="M678 956q0 -251 -268 -254q2 -71 14 -147q-27 -6 -62 -6q-16 0 -61 3t-51 3q1 12 6.5 69t9.5 85q-113 11 -243 34q1 18 2 41t1.5 37.5t2.5 29t5.5 22.5t10.5 10q95 -43 229 -58v215h-57q-13 0 -29 -1t-22 -1q-112 0 -127 9q-16 7 -31.5 79.5t-15.5 114.5q0 252 282 252
q-6 27 -6 37q0 8 13 45q148 0 155 -16q-1 -7 -6 -29t-8 -37q93 0 199 -16q-1 -18 -2 -40.5t-2 -34.5t-2.5 -24.5t-5.5 -20t-11 -11.5q-75 37 -197 43q0 -10 -4 -55.5t-4 -86.5q0 -22 4 -92h6q6 0 22.5 1t29.5 1h59q77 0 119 -10q10 -3 27.5 -79t17.5 -112zM274 1159v223
q-86 -9 -147 -36q-4 -24 -8.5 -44.5t-6 -28.5t-1.5 -9q0 -57 34 -80.5t129 -24.5zM557 934q0 55 -31 74.5t-129 27.5l6 -213q70 3 138 27q4 24 8.5 45t6 29.5t1.5 9.5z" />
    <glyph glyph-name="percent" unicode="%" horiz-adv-x="1048" 
d="M1174 178q0 -24 -25 -135t-25 -135q0 -7 4 -35q-131 -23 -215 -23q-193 0 -376 56q-22 52 -48 147l-73 -186q-159 16 -269 16h-18q193 372 389 860q-63 -8 -143 -8q-186 0 -320 51q-43 162 -43 267q0 163 99 252h28q123 0 447 -35q39 -86 39 -207q0 -8 -1 -25t-1 -26
q88 235 118 350l277 -80q-166 -309 -391 -885q130 0 497 -37q50 -92 50 -182zM498 1057q0 112 -19 155q-205 23 -219 23q-39 0 -74 -6q-59 -133 -59 -238q0 -66 16 -98t61.5 -47t137.5 -15q32 0 51 0.5t38 5.5t28 8.5t18.5 19t12 26.5t5.5 41t3 53.5v71.5zM1026 150
q0 118 -20 157q-35 7 -135.5 15t-120.5 8q-28 0 -74 -4q-64 -113 -64 -222q0 -66 19.5 -98t74 -46.5t166.5 -14.5q41 0 64.5 1.5t42.5 11.5t27 19.5t13.5 38.5t6 54t0.5 80z" />
    <glyph glyph-name="ampersand" unicode="&#x26;" horiz-adv-x="1273" 
d="M1257 434h-20q-77 0 -246 29q-39 -39 -39 -160q0 -162 39 -244q66 -4 105 -4q86 0 118 4v-49q0 -64 15 -137q-25 -5 -530.5 -28.5t-532.5 -28.5q-135 218 -135 381q0 184 205 462q-3 39 -50 234.5t-47 245.5q0 159 131 278q92 -18 199 -18q22 0 172.5 10.5t202.5 9.5
l65 -2q54 -136 54 -295q0 -37 -10.5 -200t-10.5 -199q0 -34 70 -46t217 -18q-2 -2 -2 -22v-23q0 -106 30 -180zM733 831q-6 231 -6 332q-200 -3 -338 -24q-10 -65 -10 -105q0 -112 55.5 -159.5t194.5 -47.5q26 0 104 4zM739 537q-261 24 -270 24q-65 0 -116.5 -92.5
t-51.5 -194.5q0 -110 50.5 -167.5t166.5 -57.5q17 0 86 2t84 2q24 156 51 484z" />
    <glyph glyph-name="quotesingle" unicode="'" horiz-adv-x="415" 
d="M371 1561q-59 -263 -62 -474q-61 23 -80 23l-102 -16q12 44 12 135q0 199 -30 319q24 8 104 8q11 0 36 -1t36 -1q51 0 86 7z" />
    <glyph glyph-name="parenleft" unicode="(" horiz-adv-x="626" 
d="M553 -461q0 -44 6 -82q-181 12 -289.5 120t-161.5 345t-53 633q0 1036 506 1124q-12 -49 -12 -116q0 -43 6 -84q-334 -94 -334 -934q0 -859 342 -897q-10 -39 -10 -109z" />
    <glyph glyph-name="parenright" unicode=")" horiz-adv-x="626" 
d="M72 1595q0 45 -6 82q180 -14 287.5 -120.5t161.5 -347t54 -648.5q0 -520 -122.5 -791t-376.5 -315q12 49 12 117q0 44 -6 84q327 91 327 915q0 418 -84 657t-258 259q11 43 11 108z" />
    <glyph glyph-name="asterisk" unicode="*" horiz-adv-x="1120" 
d="M442 897q-142 56 -399 115q56 85 84 211q231 -162 362 -189q0 168 -34 449q100 -17 153 -17q24 0 74 4q-37 -225 -37 -352q0 -46 6 -80q95 0 387 109q10 -121 41 -207q-255 -15 -374 -57q48 -114 233 -299q-97 -69 -174 -146q-106 253 -201 348q-106 -92 -237 -337
q-62 80 -181 135q223 194 297 313z" />
    <glyph glyph-name="plus" unicode="+" horiz-adv-x="1249" 
d="M989 907v-55q0 -35 -1 -58.5t-6 -51t-13 -44t-23.5 -28t-36.5 -11.5q-37 0 -198 37l-2 -67q-1 -19 0.5 -36.5t5 -35.5t5.5 -28t7.5 -31t7.5 -27q-80 3 -239 35q27 105 43 219q-67 6 -97 6q-82 0 -153 -41l18 266q42 -45 87 -61t159 -23q4 82 4 105q0 93 -18 164l241 -17
q-34 -106 -55 -254q107 6 264 37z" />
    <glyph glyph-name="comma" unicode="," horiz-adv-x="419" 
d="M399 135q-129 -237 -188 -438q-17 15 -33.5 24.5t-36.5 15t-31.5 7.5t-37 4.5t-35.5 3.5q28 43 65.5 200.5t42.5 242.5q28 -3 131 -31.5t123 -28.5z" />
    <glyph glyph-name="hyphen" unicode="-" horiz-adv-x="837" 
d="M797 942v-223q-27 -6 -72 -6q-43 0 -248 18.5t-252 18.5q-107 0 -151 -29v51q0 118 6 197q-3 0 52.5 -6.5t128 -13.5t110.5 -7h426z" />
    <glyph glyph-name="period" unicode="." horiz-adv-x="456" 
d="M389 -20q0 -47 -52.5 -83t-103.5 -36q-114 0 -114 155q0 109 104 109q63 0 114.5 -43t51.5 -102z" />
    <glyph glyph-name="slash" unicode="/" horiz-adv-x="1017" 
d="M1018 1282q-147 -266 -324 -698l-278 -717q-141 16 -260 16h-27q454 880 612 1479q48 -8 277 -80z" />
    <glyph glyph-name="zero" unicode="0" horiz-adv-x="1275" 
d="M1262 678q0 -341 -168 -649q-300 -37 -666 -37q-24 0 -76.5 8t-110 19t-65.5 12q-110 302 -110 823q0 21 3 140.5t3 131.5q0 19 22.5 138t22.5 153q0 24 -4 60q211 108 522 108q274 0 493 -86q94 -406 114 -527.5t20 -293.5zM1024 823q0 375 -172 492q-13 0 -94.5 2
t-104.5 2q-235 0 -286 -57q-54 -60 -54 -418q0 -484 62 -629q283 -22 321 -22q160 0 242 32q86 312 86 598zM799 799q0 -43 -51.5 -81t-104.5 -38q-115 0 -115 156q0 108 105 108q63 0 114.5 -43t51.5 -102z" />
    <glyph glyph-name="one" unicode="1" horiz-adv-x="497" 
d="M477 1417l-33 -112q-100 -340 -100 -967q0 -186 10 -363q-34 -6 -67 -6q-28 0 -107 11q-105 15 -107 18q-1 1 -1 2q0 45 35.5 228.5t37.5 201.5l56 791q-36 36 -88 36q-71 0 -156 -67q4 24 13 66t12.5 68t3.5 56q0 7 -11 64q2 -2 29 -2h31q25 0 126.5 3t123.5 3
q192 0 192 -31z" />
    <glyph glyph-name="two" unicode="2" horiz-adv-x="1075" 
d="M1071 1118q0 -90 -29.5 -157t-74.5 -105t-116.5 -69t-135.5 -47.5t-152.5 -41.5t-148.5 -49q-118 -48 -169.5 -153.5t-51.5 -268.5h28q562 0 778 119q34 -40 37 -262q-365 -74 -616 -74q-33 0 -184.5 -7t-184.5 -7q-45 0 -58 20.5t-13 77.5q0 98 4 168.5t16 143.5
t33 125.5t56 106t83.5 94t117 80.5t156 73.5t199.5 66.5q234 68 234 178q0 142 -365 142q-236 0 -408 -90q-33 42 -36 239q268 54 573 54q198 0 313 -95.5t115 -261.5z" />
    <glyph glyph-name="three" unicode="3" horiz-adv-x="1290" 
d="M1266 197q0 -162 -136 -381q-437 59 -747 59q-209 0 -301 -27q-51 80 -51 230q0 66 12 143l250 21q47 -189 176 -189q28 0 134.5 -2t127.5 -2q46 0 73.5 1t58.5 5.5t48 14t34.5 25t25.5 40t13 58t5 79.5q0 113 -47 201t-117 88q-1 0 -43.5 -4t-159.5 -15t-235 -22
q53 53 53 142q0 93 -53 182q39 -7 132 -13t147 -6q249 0 249 215q0 34 -10 99q-156 24 -430 24q-62 0 -96 -5t-52 -23.5t-22.5 -39.5t-7.5 -67l-231 21v8q0 168 86 362q184 0 368 -13t217 -13q177 0 289 24q127 -121 127 -276q0 -77 -33 -250t-61 -232q84 -88 145.5 -229
t61.5 -233z" />
    <glyph glyph-name="four" unicode="4" horiz-adv-x="1060" 
d="M1059 578l-17 -230q-68 45 -131 45q-19 0 -22 -14q2 0 2 -10q0 -90 -21 -361t-36 -276q-1 0 -18.5 3t-31 5.5t-36 8t-40 11t-37.5 14.5t-33 19.5t-21.5 24.5t-8.5 30q0 38 32 201t32 201q0 173 -154 188q-234 21 -395 21h-78q-20 0 -22 -2q81 239 81 630q0 156 -18 267
q36 4 59 4q16 0 91.5 -5t93.5 -5q61 0 80 8l4 -19q0 -15 -50.5 -251t-50.5 -283q0 -85 21 -125q9 -1 120 -30.5t146 -29.5q49 0 75 33t33 89.5t9.5 117t13.5 130t37 114.5q122 -34 225 -53q-73 -250 -90 -455q15 1 33 2t27.5 1.5t13.5 0.5q56 0 82 -20z" />
    <glyph glyph-name="five" unicode="5" horiz-adv-x="1206" 
d="M1206 367q0 -357 -483 -357q-184 0 -559 74q5 157 10 196.5t27 65.5q90 -50 249.5 -87.5t282.5 -37.5q299 0 299 195q0 53 -10 86.5t-43.5 66t-96 50t-168.5 28t-261 10.5q-34 0 -166 -3t-158 -3q43 228 43 488q0 216 -43 303q55 0 317.5 12t323.5 12q185 0 320 -24
q-5 -169 -10 -191q-5 -27 -27 -49q-148 80 -351 80q-205 0 -368 -82q-25 -138 -25 -203q0 -68 19 -127q127 -34 258 -34q29 0 158.5 8t156.5 8q113 0 178 -44t96 -149.5t31 -291.5z" />
    <glyph glyph-name="six" unicode="6" horiz-adv-x="1099" 
d="M1085 422q0 -266 -88 -455h-22q-150 0 -617 8q-8 0 -28.5 -1t-32.5 -1q-98 0 -242 9q0 44 -4 248t-4 249q0 705 227 1008q39 -4 142 -37.5t110 -34.5q0 -1 -54 -71t-108.5 -153.5t-54.5 -117.5q0 -31 25 -47q36 0 229 10.5t242 10.5q74 0 164 -11q116 -314 116 -614z
M895 451q0 333 -113 333h-508q-16 -29 -16 -110q0 -92 6 -168q3 -39 5 -80.5t1.5 -66t1.5 -50.5t4.5 -39t12.5 -27t22.5 -19.5t37.5 -11t54.5 -6.5t75.5 -1q267 0 385 14q31 42 31 232z" />
    <glyph glyph-name="seven" unicode="7" horiz-adv-x="1216" 
d="M1217 1315q-104 -175 -459 -709q-295 -440 -412 -737q-176 37 -194 37q-32 0 -146 -12q70 138 375 585q247 360 336 608q-35 0 -234.5 28t-255.5 28q-65 0 -135 -13q45 86 45 170q0 56 -24 115q288 -115 817 -115q167 0 287 15z" />
    <glyph glyph-name="eight" unicode="8" horiz-adv-x="1288" 
d="M1264 197q0 -160 -134 -381q-437 59 -745 59q-204 0 -303 -27q-43 76 -43 252t47 326t119 186q-139 245 -139 451q0 165 86 354l94 2q62 1 233.5 -13t220.5 -13q173 0 285 24q139 -133 139 -315q0 -52 -32.5 -232t-32.5 -211q205 -272 205 -462zM991 268q0 117 -50.5 205
t-125.5 88h-473q-80 -92 -80 -248q0 -51 9 -91t24 -67.5t40 -47.5t50.5 -31.5t62 -18t68.5 -8.5t76 -2h143q51 0 83 2.5t64 10t50 22t32.5 39t20.5 60.5t6 87zM918 1018q0 48 -13 121q-156 24 -395 24h-111q-129 0 -129 -190q0 -129 43 -187q28 0 160 -7t162 -7
q156 0 219.5 57.5t63.5 188.5z" />
    <glyph glyph-name="nine" unicode="9" horiz-adv-x="1110" 
d="M1055 889q0 -703 -228 -1008q-29 0 -85.5 16.5t-109 35t-59.5 20.5q0 -5 55 65t110 156t55 121q0 34 -27 49q-61 -5 -233 -13.5t-236 -8.5q-82 0 -164 10q-117 316 -117 614q0 266 88 455h23q10 0 86 1t143 1q321 0 691 -17q0 -45 4 -249t4 -248zM842 694q0 30 -7.5 168
t-7.5 168q0 33 -1.5 51t-9.5 35t-19.5 24.5t-36.5 13.5t-55.5 7.5t-81.5 1.5q-269 0 -387 -14q-29 -43 -29 -231q0 -334 112 -334h508q15 21 15 110z" />
    <glyph glyph-name="colon" unicode=":" horiz-adv-x="434" 
d="M389 594q0 -43 -51.5 -81t-104.5 -38q-114 0 -114 156q0 108 104 108q63 0 114.5 -43t51.5 -102zM389 -20q0 -47 -52.5 -83t-103.5 -36q-114 0 -114 155q0 109 104 109q63 0 114.5 -43t51.5 -102z" />
    <glyph glyph-name="semicolon" unicode=";" horiz-adv-x="413" 
d="M389 594q1 -43 -51.5 -81t-104.5 -38q-114 0 -114 156q0 108 104 108q63 0 114.5 -43t51.5 -102zM399 135q-129 -237 -188 -438q-17 15 -33.5 24.5t-36.5 15t-31.5 7.5t-37 4.5t-35.5 3.5q28 43 65.5 200.5t42.5 242.5q28 -3 131 -31.5t123 -28.5z" />
    <glyph glyph-name="less" unicode="&#x3c;" horiz-adv-x="1380" 
d="M1280 913v-204q-243 0 -500 14t-301 14q144 -85 330 -149q-3 -107 -33 -213q-113 56 -373 193t-344 188v153q49 15 198 94.5t318.5 176t204.5 114.5q31 -89 31 -221q-160 -48 -315 -145q167 -15 579 -15h205z" />
    <glyph glyph-name="equal" unicode="=" horiz-adv-x="907" 
d="M797 1147v-223q-27 -6 -72 -6q-43 0 -248 18t-252 18q-109 0 -151 -28v51q0 117 6 197q-3 0 52.5 -7t128 -13.5t110.5 -6.5h426zM819 575v-59q-39 33 -188 33q-42 0 -223 -10.5t-222 -10.5q-50 0 -90 7v223q35 0 204.5 -2t209.5 -2q156 0 303 10q6 -83 6 -189z" />
    <glyph glyph-name="greater" unicode="&#x3e;" horiz-adv-x="1380" 
d="M59 754v204q244 0 500 -14t301 -14q-144 85 -330 149q3 107 33 213q113 -56 373 -193t344 -188v-153q-49 -15 -214 -102.5t-287.5 -157t-219.5 -125.5q-31 89 -31 221q162 48 316 145q-220 15 -785 15z" />
    <glyph glyph-name="question" unicode="?" horiz-adv-x="1071" 
d="M1071 1118q0 -222 -135 -305q-27 -9 -74.5 -23.5t-78 -24.5t-70.5 -26t-65.5 -33.5t-49.5 -42t-35.5 -58t-11.5 -73.5q0 -102 55 -264q-2 0 -39.5 -3t-83 -6t-67.5 -3q-59 0 -68 12q-9 13 -24 113t-15 145q0 192 150 287l276 121q148 65 148 172q0 39 -19 94
q-159 72 -350 72q-236 0 -408 -90q-33 39 -36 239q268 54 573 54q198 0 313 -95.5t115 -261.5zM643 -20q0 -46 -52.5 -82.5t-101.5 -36.5q-116 0 -116 155q0 109 104 109q63 0 114.5 -43t51.5 -102z" />
    <glyph glyph-name="at" unicode="@" horiz-adv-x="1376" 
d="M1319 281l20 -232q-149 76 -456 76q-57 0 -313.5 -14.5t-315.5 -14.5q-40 0 -60.5 0.5t-46 4t-36 8.5t-24 17.5t-17.5 27.5t-9 41.5t-5.5 56t-0.5 74.5q0 51 18.5 310t18.5 273q0 25 -7 129t-7 127q0 148 74.5 211.5t246.5 63.5q53 0 279.5 -30t267.5 -30q16 0 76 3t76 3
q142 0 194 -94q11 -37 11 -372q0 -369 -11 -412q-34 -131 -407 -131q-54 0 -82.5 43t-48.5 158l-9 -21q-1 -3 -7.5 -19.5t-8.5 -21t-9 -19t-10.5 -19.5t-10.5 -16.5t-13 -16.5l-15 -12.5t-17.5 -10.5t-20 -5.5t-23.5 -2.5q-252 0 -252 237q0 110 45.5 158.5t151.5 48.5
q19 0 91 -4t87 -4q10 58 10 61q0 88 -84 88q-48 0 -98.5 -29t-68.5 -69l-125 121q40 3 173 60t183 57q207 0 207 -199q0 -34 -21.5 -168.5t-21.5 -167.5q0 -92 76 -92q167 0 167 332q0 90 -18.5 196t-38.5 121q-151 115 -418 115q-17 0 -91 -2t-93 -2q-15 0 -66 3t-67 3
q-24 0 -74 -16q-12 -6 -30.5 -252t-18.5 -398q0 -216 21 -256q68 -139 432 -139q127 0 651 64zM698 733v6q-2 -2 -24 -2q-16 0 -67 9.5t-64 9.5q-54 0 -54 -125q0 -90 74 -90q47 0 91 70.5t44 121.5z" />
    <glyph glyph-name="A" unicode="A" 
d="M662 911q-196 -343 -199 -471h338q10 42 10 54q0 72 -149 417zM1333 68q-3 -11 -10.5 -22t-23.5 -25t-29.5 -24.5t-40.5 -29t-43 -28.5l-52 -32.5t-53 -33.5q-31 31 -83.5 174t-75.5 166q-208 27 -295 27q-340 0 -340 -306q-219 60 -269 72q119 256 193.5 424
t156.5 386.5t109 359.5q-41 8 -94 8q-60 0 -115 -19q-24 30 -24 219q76 -6 252 -6h260q54 0 142.5 2t111.5 2q12 0 19.5 -11t11 -34.5t4.5 -45t2 -57.5t2 -58q-35 -5 -109 -5q-12 0 -40 1.5t-46 1.5q-6 -12 -6 -35q0 -141 192 -559q200 -434 293 -512z" />
    <glyph glyph-name="B" unicode="B" horiz-adv-x="1296" 
d="M1255 80q0 -187 -143 -385q-546 119 -893 119q-72 0 -151 -11q-11 49 -11 97q0 40 54.5 674t54.5 675q0 81 -12 105q21 -2 186.5 -18.5t321.5 -30t225 -13.5q94 0 190 13q44 -52 76.5 -184.5t32.5 -260.5q0 -71 -13.5 -123.5t-29.5 -77t-29.5 -54.5t-13.5 -62
q0 -7 39 -95.5t77.5 -199t38.5 -168.5zM1006 131q0 82 -20 156.5t-56 122.5t-80 51l-471 35q-100 -97 -100 -271q0 -111 49 -175t141 -70l389 -29q8 3 26.5 6.5t32.5 6.5t31.5 14t29.5 28t20 49t8 76zM983 952v58q0 24 -67.5 41.5t-163.5 26t-172 12.5t-121 4
q-127 0 -127 -217q0 -112 33 -156q13 0 167 -19.5t205 -19.5q130 0 188 62t58 208z" />
    <glyph glyph-name="C" unicode="C" horiz-adv-x="1130" 
d="M1130 1415q-5 -151 -9.5 -185.5t-26.5 -53.5q-146 79 -369 79q-229 0 -391 -79q-29 -185 -29 -547q0 -76 0.5 -111t5 -83.5t10.5 -66.5t22 -44.5t35.5 -33t54 -16t73.5 -11t98 -1.5q92 0 259 20.5t167 36.5q24 0 50 -82.5t26 -132.5q0 -52 -100.5 -62.5t-444.5 -10.5
q-336 0 -375 20q-63 29 -63 697q0 37 3 188t3 156q21 372 567 372q196 0 434 -49z" />
    <glyph glyph-name="D" unicode="D" horiz-adv-x="1372" 
d="M1350 610q-2 -82 -30 -260.5t-71 -290.5q-8 -20 -155.5 -39.5t-251.5 -19.5h-523q-79 0 -79 84q8 73 12 88q7 25 12 245.5t8.5 466t6.5 294.5q-94 49 -164 49q-49 0 -70 -8v247q374 -26 1163 -96q2 -26 72 -340.5t70 -419.5zM1128 459q0 297 -104 717q-303 57 -461 57
q-61 0 -86.5 -157t-25.5 -548v-71q0 -52 2 -139.5t2 -90.5l32 -24q23 0 132 -5t135 -5q374 0 374 266z" />
    <glyph glyph-name="E" unicode="E" horiz-adv-x="1339" 
d="M1339 1339q-18 -62 -28 -184q-41 2 -183 6.5t-252.5 9.5t-138.5 9q-84 -57 -84 -228q0 -107 43 -159h299q177 0 297 -15q-34 -66 -43 -221q-16 -16 -73 -16q-38 0 -215 18.5t-218 18.5q-78 0 -100 -20t-22 -75q0 -92 4 -147t14.5 -97.5t32 -62t52.5 -28.5t81 -9
q27 0 146 6.5t145 6.5q18 0 116 -5q-17 -70 -20 -206q-18 -7 -72 -7q-42 0 -227.5 6.5t-222.5 6.5q-185 0 -297 -23q0 19 27.5 527.5t27.5 533.5q0 65 -4 191q-50 18 -117 18q-106 0 -215 -47q13 88 35 307q113 -29 375.5 -50t515.5 -36.5t321 -28.5z" />
    <glyph glyph-name="F" unicode="F" horiz-adv-x="1196" 
d="M1196 1432q-16 -75 -16 -187h-78q-97 0 -250 -8q-33 -2 -76.5 -4t-65.5 -2.5t-51.5 -4t-42.5 -8t-30 -14.5t-23.5 -23.5t-14 -35.5t-9.5 -50t-2 -67q0 -134 55 -186q11 0 229 14t291 14h57q17 0 19 -2q-31 -82 -31 -188q0 -7 1 -18.5t1 -18.5q-61 -18 -223 -18
q-23 0 -121 3t-119 3q-153 0 -153 -51v-25q0 -438 41 -547q-62 -2 -254 -57v31q0 11 -1 31.5t-1 33.5q0 89 8 307.5t8 247.5q0 684 -141 684q-127 0 -197 -43v232q165 -29 520 -29h203q321 0 467 -14z" />
    <glyph glyph-name="G" unicode="G" horiz-adv-x="1243" 
d="M1188 199l43 -86q-12 -1 -145 -19.5t-271.5 -34.5t-206.5 -16q-252 0 -499 137q-111 344 -111 621q0 308 145 633q239 106 543 106q228 0 377 -76l-49 -231q-303 61 -459 61q-175 0 -258 -86q-44 -47 -61 -91.5t-23 -126t-6 -273.5q0 -107 10 -180.5t33.5 -129
t65.5 -87.5t102 -47t147 -15q21 0 164.5 10.5t192.5 10.5h26q15 27 15 81q0 13 -2.5 52.5t-2.5 50.5q0 13 6.5 58t6.5 59q0 38 -13 57.5t-41 25t-59 5.5t-80.5 3t-91.5 13q-43 -16 -86 -16q-21 0 -42 1t-34 2t-14 1q-86 0 -148 -45v164q0 28 -4 106q32 14 535 14h319
q-55 -88 -55 -456v-174q0 -18 31 -82z" />
    <glyph glyph-name="H" unicode="H" horiz-adv-x="1456" 
d="M1456 1243q-66 -203 -90.5 -389.5t-44.5 -634.5q0 -5 -4.5 -75.5t-9 -156t-4.5 -126.5q0 -8 5 -42t5 -46q0 -43 -31 -52q-13 5 -56.5 21t-63 23t-52.5 17.5t-57 16.5t-45 8q71 53 86 179l6 209q0 15 1 33.5t1 23.5q0 111 -50.5 159t-172.5 48q-13 0 -87.5 -3t-91.5 -3
q-88 0 -165 6q-52 -319 -52 -461q0 -66 11 -145q-208 10 -263 10h-26q116 379 131 1257q-56 29 -125 29q-95 0 -168 -33v8q0 14 -5 78t-5 78q0 66 24 100q13 0 192.5 -17t242.5 -17q103 0 163 14q2 -2 2 -19q-2 -17 -50 -255t-48 -283q0 -81 21 -121q6 -1 190.5 -36.5
t243.5 -35.5q40 0 67 7t45.5 28t29 45t16 72.5t7 96t1.5 128.5q0 217 51 309q122 -34 225 -53z" />
    <glyph glyph-name="I" unicode="I" horiz-adv-x="413" 
d="M377 1243q0 -1 -2.5 -12.5t-9 -40.5t-13.5 -62q-45 -202 -45 -579q0 -390 47 -754q-44 -12 -100 -12q-101 0 -140.5 6.5t-39.5 28.5q0 39 20.5 207.5t20.5 207.5v863q0 12 -6.5 46t-6.5 42q0 6 23 90q252 0 252 -31z" />
    <glyph glyph-name="J" unicode="J" horiz-adv-x="1224" 
d="M1178 1044q0 -655 -127 -1128q-47 -27 -166 -27q-29 0 -299 21l-23 16l-330 21q-74 9 -83 84l-37 295l233 -17q15 -111 49 -157q194 -37 377 -37q77 0 96 10.5t39 69.5q84 274 84 600q0 414 -198 426l12 204q307 -27 340 -43q33 -14 33 -338z" />
    <glyph glyph-name="K" unicode="K" horiz-adv-x="1517" 
d="M1518 -188q-8 -8 -24.5 -17t-47 -21.5t-53.5 -21.5t-69.5 -26.5t-70.5 -26.5q-20 53 -50 144.5t-57 173t-60 177t-65.5 171.5t-66 140.5t-68.5 100t-67 35.5q-44 0 -99.5 -55.5t-92.5 -128t-37 -121.5q0 -139 43 -307q-85 -15 -193 -15q-7 0 -27 1t-34 1h-72
q64 27 64 627q0 167 -11 590q-103 41 -188 41q-90 0 -166 -21q0 15 5 72.5t5 75.5q0 17 -10 69q58 0 308 -18t304 -18q0 -50 -10 -306t-10 -319q86 16 373 321q132 141 203 240.5t71 136.5v6q12 0 17 5q14 0 34 -12.5t40.5 -31t42 -41.5t40 -45.5t33.5 -41.5t24 -30l9 -11
q2 -11 -58.5 -64t-179.5 -145q-241 -189 -241 -252q0 -38 153 -344t359 -688z" />
    <glyph glyph-name="L" unicode="L" horiz-adv-x="1110" 
d="M1110 168q-17 -103 -20 -207q-13 -8 -64 -8q-59 0 -269.5 25t-226.5 26l-20 2q-75 0 -238 -41q0 23 39 519t39 522q0 317 -166 317q-65 0 -168 -53l17 213q146 -3 665 -43q-69 -52 -125 -498q-47 -376 -47 -575q0 -149 25 -152q39 -3 102.5 -8t198 -17t258.5 -22z" />
    <glyph glyph-name="M" unicode="M" horiz-adv-x="1798" 
d="M1729 395l69 -442q-27 -6 -63 -6q-16 0 -75 4t-77 4q-49 0 -86 -12l-2 979q0 153 -51 153q-1 0 -3.5 -0.5t-8 -1.5t-11.5 -2q-8 -43 -164.5 -582t-164.5 -579l-91 -31q0 121 -434 1088q-52 -73 -61 -478v-522q0 -100 -33 -100q-11 0 -52.5 8t-55.5 8q-47 0 -97 -18
q-8 57 -8 139q0 116 16 283q10 97 21.5 310t25 345t37.5 166q0 62 -35 87.5t-126 25.5q-109 0 -162 -47q4 70 4 126q0 59 -4 113h280q13 0 85 10.5t90 10.5q55 0 90.5 -9.5t67 -37t54.5 -76t46 -129.5q80 -281 154 -464t122 -183q15 0 84 182t149.5 411.5t98.5 274.5h239
q28 3 60 29q39 -51 39 -310q0 -26 -3 -141t-3 -141q0 -194 39 -445z" />
    <glyph glyph-name="N" unicode="N" horiz-adv-x="1439" 
d="M1284 -233q-21 -9 -78 -9q-16 0 -68 3t-69 3q-37 0 -72 -6q-184 368 -522 828q-41 -27 -41 -242q0 -27 11.5 -229.5t11.5 -276.5v-71q-75 -11 -152 -11q-7 0 -26 1t-33 1h-72q31 152 31 602q0 79 -7.5 438t-7.5 439q0 36 3 39q80 -45 167 -45q64 0 89 14
q216 -417 268 -524q159 -291 325 -490q25 31 25 164q0 109 -19.5 319.5t-39 377t-19.5 168.5q20 0 110.5 -18.5t112.5 -18.5q36 0 72 22q-8 -243 -8 -645v-328q0 -131 2 -211q0 -7 -1 -25t-1 -30q0 -108 8 -239z" />
    <glyph glyph-name="O" unicode="O" horiz-adv-x="1165" 
d="M1114 651q0 -401 -59 -702q-64 -43 -279 -43q-24 0 -99 2t-87 2l-23 14q-13 0 -81 -2t-87 -2q-178 0 -270 57q12 24 12 62q0 35 -35.5 185t-35.5 184q0 283 46 588.5t105 396.5q27 43 486 43q297 0 340 -19q29 -12 48 -235.5t19 -530.5zM926 580q0 259 -58 628
q-8 0 -169 11.5t-218 11.5q-103 0 -156 -132.5t-53 -377.5q0 -176 32.5 -352.5t80.5 -231.5q99 -12 258 -12q198 0 229 31q54 187 54 424z" />
    <glyph glyph-name="P" unicode="P" horiz-adv-x="1187" 
d="M1188 977q0 -291 -160 -647q-2 -2 -29 -2h-30q-92 0 -332 28l-240 29q-80 -47 -80 -221q0 -137 37 -230q-2 -2 -16 -2h-53q-2 0 -242 17q2 18 61 587t64 609q-125 61 -180 61q-49 0 -88 -26q18 82 18 174v47q0 14 -2 16l1212 -86q60 -186 60 -354zM995 956q0 105 -16 134
q-249 47 -469 47q-35 0 -49.5 -0.5t-33.5 -8t-24.5 -17.5t-13 -37t-9.5 -58.5t-5 -89.5q0 -13 -15.5 -111.5t-15.5 -126.5q0 -21 10 -59l508 -35q60 0 96.5 100t36.5 262z" />
    <glyph glyph-name="Q" unicode="Q" horiz-adv-x="1198" 
d="M1298 -217q-121 -115 -215 -139q-38 44 -100 131q-28 39 -51 73t-33 49l-10 15q-70 -4 -129 -4q-508 0 -631 69q-43 304 -43 650q0 569 135 766q30 43 416 43q321 0 410 -19q92 -21 92 -446q0 -562 -76 -981q139 -139 235 -207zM915 641q0 244 -47 567q-276 23 -387 23
q-103 0 -156 -132.5t-53 -377.5q0 -176 32.5 -352.5t80.5 -231.5q95 -12 205 -12q78 0 119 6q-139 139 -258 197l254 188q3 -113 174 -326q36 216 36 451z" />
    <glyph glyph-name="R" unicode="R" horiz-adv-x="1298" 
d="M1298 -217q-117 -117 -215 -139q-543 688 -661 688q-111 0 -111 -248q0 -106 21 -182q-57 -11 -125 -11q-2 0 -20.5 1t-59.5 2.5t-86 3.5q92 751 92 1210q0 199 -29 305q189 -37 529 -56.5t481 -19.5q82 -174 82 -448q0 -268 -96 -580q-14 0 -106.5 17.5t-121.5 17.5
q-54 0 -96 -25q29 -32 120.5 -135t142 -158t126 -128t133.5 -115zM410 1153q-64 0 -64 -45q0 -12 2 -54t2 -55q0 -29 -15.5 -155.5t-15.5 -157.5q0 -82 21 -123q128 8 190 8q31 0 175.5 -13t177.5 -13q74 0 98 39q4 4 19.5 189.5t15.5 219.5q0 55 -43 119q-83 21 -276 31
t-287 10z" />
    <glyph glyph-name="S" unicode="S" horiz-adv-x="1220" 
d="M1221 481q0 -229 -113.5 -350t-329.5 -121q-246 0 -614 74q5 190 10 214q6 30 27 48q211 -117 510 -117q176 0 288 56q15 64 15 127q0 231 -262 231q-36 0 -190.5 -13.5t-190.5 -13.5q-120 0 -185 35q-63 34 -63 297q0 94 10 165.5t34.5 134.5t66.5 106t105 74.5
t151.5 46t205.5 14.5q185 0 434 -47q-5 -155 -9.5 -190.5t-26.5 -49.5q-148 80 -369 80q-228 0 -391 -82q-12 -70 -12 -129q0 -229 258 -229q36 0 191.5 14t191.5 14q122 0 186 -34q19 -10 45.5 -149t26.5 -206z" />
    <glyph glyph-name="T" unicode="T" horiz-adv-x="1236" 
d="M1208 1116q-104 39 -229 39q-73 0 -211 -22q-49 -407 -49 -828q0 -243 22 -465q-125 18 -243 29q20 176 20 428q0 45 -20.5 421t-20.5 415q-16 0 -102 2t-105 2q-124 0 -262 -25q17 60 17 88q0 62 -25 129q4 4 161 12t445.5 16t587.5 11q5 -29 12.5 -98.5t7.5 -93.5
q0 -33 -6 -60z" />
    <glyph glyph-name="U" unicode="U" horiz-adv-x="1378" 
d="M70 1333q2 -2 16 -2h51q21 0 118 3t118 3q130 0 231 -34q-45 -99 -92 -508q-43 -365 -43 -531q0 -185 227 -196q292 -17 308 -17q42 0 76.5 123.5t57.5 398t23 656.5q44 -14 88.5 -21t63.5 -8.5t36 -12t21 -32t4 -68.5q0 -32 -47 -583.5t-51 -618.5q0 -39 -313 -39
q-131 0 -287 13q-41 3 -203 49.5t-194 50.5q-27 27 -27 201q0 77 5.5 202t14 249.5t16.5 237.5t13.5 187.5t5.5 77.5q-65 10 -80 10q-106 0 -176 -61q35 166 35 194q0 26 -16 76z" />
    <glyph glyph-name="V" unicode="V" horiz-adv-x="1515" 
d="M1516 1350q-211 -463 -482 -1456h-186q-47 178 -175.5 499t-233.5 557t-105 230q-164 -3 -289 -64q-3 16 -11.5 55.5t-17 83.5t-16.5 88q25 0 228.5 18.5t277.5 18.5h47q-4 -20 -4 -34q0 -100 110.5 -377t264.5 -561q213 516 311 1001q52 -5 281 -59z" />
    <glyph glyph-name="W" unicode="W" horiz-adv-x="1998" 
d="M1999 1380q-214 -468 -483 -1456h-185q-52 182 -160 490q-69 -303 -137 -520h-186q-47 178 -175.5 499t-233.5 557t-105 230q-164 -3 -289 -64q-3 16 -11.5 55.5t-17 83.5t-16.5 88q28 0 232.5 18.5t273.5 18.5h47q-4 -20 -4 -34q0 -100 110.5 -377t264.5 -561
q65 150 116 350q-111 285 -223 596l100 22q91 17 136 17q15 0 43 -4q-4 -28 -4 -41q0 -59 34 -195l48 256q46 -4 280 -59q-109 -236 -197 -578q65 -164 148 -334q212 515 311 1002q44 -4 283 -60z" />
    <glyph glyph-name="X" unicode="X" horiz-adv-x="1118" 
d="M1090 -43q-99 -25 -283 -59q-29 144 -211 518q-242 -375 -277 -520q-4 0 -77 3t-97 3q-68 0 -112 -8q48 112 240.5 428t199.5 331q-9 16 -107.5 175.5t-197.5 329t-135 255.5q49 -6 112 -6q23 0 97 2t77 2q26 -75 93.5 -204t123 -222.5t60.5 -93.5q129 253 160 329
t51 189q55 -8 283 -59q-12 -24 -52.5 -100.5t-134.5 -253.5t-182 -343q61 -108 369 -696z" />
    <glyph glyph-name="Y" unicode="Y" horiz-adv-x="1230" 
d="M1231 1391q-20 -35 -121 -171t-201.5 -279.5t-132.5 -215.5q-26 -60 -58 -279t-32 -335q0 -73 12 -107q-105 6 -163 6q-115 0 -154 -20q37 74 95.5 337t58.5 359q0 51 -86 215t-188 345t-124 245q49 -14 289 -23q15 -61 71 -176t113 -218t58 -105q24 38 72 113t75 118
t60 99.5t52 98t27 72.5q26 -4 277 -79z" />
    <glyph glyph-name="Z" unicode="Z" horiz-adv-x="1120" 
d="M1120 1397q-93 -190 -358 -615q-243 -393 -320 -635q91 18 214.5 23.5t340.5 5.5l-45 -295q-286 35 -581 35q-214 0 -359 -22q14 33 155.5 284.5t285 531.5t186.5 425h-23q-38 0 -201.5 12t-199.5 12q-111 0 -203 -24q35 107 35 151q0 71 -33 133q213 -65 570 -65
q318 0 536 43z" />
    <glyph glyph-name="bracketleft" unicode="[" horiz-adv-x="577" 
d="M82 -213q18 605 18 1274q0 164 -4 430q12 -4 43 -4q299 0 381 12q8 -47 8 -115q0 -38 -2 -61q-282 18 -288 18q-6 -183 -14.5 -665t-8.5 -739h27q54 0 153.5 13t110.5 13q10 -65 10 -119q0 -39 -2 -57q-62 4 -100 4q-57 0 -174 -2t-158 -2z" />
    <glyph glyph-name="backslash" unicode="\" horiz-adv-x="811" 
d="M805 -106q-53 6 -121 6q-8 0 -28.5 -0.5t-60 -1.5t-77.5 -2q-38 117 -123.5 385.5t-134 416.5t-118.5 338.5t-128 313.5q99 25 283 59q121 -623 508 -1515z" />
    <glyph glyph-name="bracketright" unicode="]" horiz-adv-x="577" 
d="M494 1495q-19 -638 -19 -1276q0 -162 4 -428q-62 4 -102 4q-178 0 -322 -12q-8 47 -8 115q0 38 2 61q169 -18 289 -18q6 178 14 661.5t8 743.5h-26q-55 0 -153.5 -13.5t-110.5 -13.5q-13 60 -13 119q0 21 4 57q62 -4 99 -4q61 0 176.5 2t157.5 2z" />
    <glyph glyph-name="asciicircum" unicode="^" 
d="M1350 25q-6 -25 -41 -60t-72 -62.5t-110 -78.5q-22 -15 -33 -23q-26 29 -57 114t-59.5 168.5t-47.5 106.5q-198 31 -303 31q-351 0 -351 -303v-22q0 -22 3 -25q-229 70 -275 82q124 300 200 492t159 440t110 405q79 6 145 6q192 0 236 -47q0 -155 197 -639
q200 -493 299 -585zM664 989q-202 -389 -205 -538h346q10 52 10 59q0 32 -29 124t-71 209.5t-51 145.5z" />
    <glyph glyph-name="underscore" unicode="_" horiz-adv-x="1372" 
d="M1425 -123q-53 -195 -53 -272q-523 59 -874 59q-216 0 -412 -18q0 196 -18 301q574 -72 1208 -72q24 0 73.5 1t75.5 1z" />
    <glyph glyph-name="grave" unicode="`" horiz-adv-x="1056" 
d="M694 1475q-195 117 -372 170q42 55 51 139q193 -110 381 -176q-37 -57 -60 -133z" />
    <glyph glyph-name="a" unicode="a" horiz-adv-x="1196" 
d="M1194 66q-24 -12 -82 -28.5t-118.5 -32t-67.5 -17.5q-5 19 -15 74.5t-27.5 126t-45.5 143.5q-299 3 -476 20q-38 -58 -68.5 -181.5t-39.5 -190.5q-104 38 -168 38q-38 0 -51 -8q8 51 137.5 623t144.5 618q46 160 70 232q198 -20 358 -47q0 -211 35.5 -358t132.5 -378
q9 -27 140 -325.5t141 -308.5zM539 1171q-53 -153 -140 -575q30 -43 119 -43q132 0 175.5 22t43.5 84q0 41 -26.5 107.5t-80 185t-91.5 219.5z" />
    <glyph glyph-name="b" unicode="b" horiz-adv-x="1267" 
d="M1260 1085q0 -111 -31.5 -233.5t-102.5 -200.5q58 -74 88.5 -183.5t30.5 -213.5q0 -287 -209 -410q-35 0 -336 23.5t-399 23.5q-165 0 -219 -28q-2 4 -2 31v96q0 192 26.5 722.5t26.5 747.5q892 -61 1036 -61q91 -142 91 -314zM420 580q-31 0 -46.5 -3t-27.5 -17
t-15.5 -38t-5 -70.5t-1.5 -109.5q0 -136 -2 -231q224 -58 546 -68q140 0 140 442q0 27 -64 46.5t-162.5 29.5t-189.5 14.5t-172 4.5zM1032 1128q-84 25 -229 45t-275.5 31.5t-136.5 12.5q-43 -52 -43 -299v-138q65 -35 406 -35q168 0 225 11q28 11 37.5 99t15.5 273z" />
    <glyph glyph-name="c" unicode="c" horiz-adv-x="1155" 
d="M1155 1397q0 -146 -41 -242q-149 88 -387 88q-216 0 -373 -74q-39 -192 -39 -610q0 -73 3.5 -122t15 -84.5t25.5 -54.5t42.5 -29.5t58 -13.5t79.5 -3q164 0 516 31q32 -75 35 -242q-51 0 -150 -10.5t-137 -10.5q-76 0 -223.5 7t-267 13.5t-126.5 6.5q-51 0 -51 522
q0 362 12 521q27 362 547 362q208 0 461 -55z" />
    <glyph glyph-name="d" unicode="d" horiz-adv-x="1212" 
d="M1180 494q0 -109 -105 -494q-39 -16 -75.5 -25t-60.5 -11.5t-71 -6.5q-62 -4 -387 -4q-44 0 -156 1t-182 1q-77 0 -77 84q0 19 14 89.5t14 86.5q41 650 41 920q0 201 -24 274q304 -57 944 -98q3 -35 34.5 -203.5t61 -349.5t29.5 -264zM961 442q0 267 -93 676
q-346 68 -465 68q-33 0 -55 -46t-37 -161.5t-21.5 -308.5t-6.5 -490l32 -24q17 0 136 -7.5t153 -7.5q197 0 277 69t80 232z" />
    <glyph glyph-name="e" unicode="e" horiz-adv-x="929" 
d="M930 860v-24q0 -112 -21 -201q-9 -11 -163.5 -17.5t-302.5 -21.5t-148 -47q0 -157 12.5 -234t41 -106t87.5 -29q4 0 87 9.5t198.5 20t193.5 13.5q-4 -36 -4 -57v-103q0 -19 4 -47q-34 -25 -561 -36q-72 -3 -252 -66q-2 65 -6 250t-5.5 234.5t-6.5 188t-11 202.5
t-16 179.5t-24 218.5t-33 226q76 -8 184 -8q54 0 293 11t293 11t148 -4q-11 -56 -11 -125v-30q0 -29 2 -31q-42 0 -288 -16q-37 -3 -101 -7q-169 -10 -208.5 -38.5t-39.5 -163.5q0 -143 62 -199q-3 0 41.5 5t115.5 11.5t150 13.5t159 12t130 5z" />
    <glyph glyph-name="f" unicode="f" horiz-adv-x="1083" 
d="M1083 1300q-21 -65 -30 -184q-77 9 -320.5 21.5t-255.5 13.5q-86 -56 -86 -236q0 -104 39 -149q426 0 598 -25q-46 -85 -49 -223q-2 -2 -33 -2q-121 0 -198 4t-175.5 14t-160.5 15q-49 0 -62.5 -87t-13.5 -290q0 -196 14 -235l-20 2q-65 0 -238 -37q1 15 42.5 414
t41.5 515q0 39 -6 202.5t-6 201.5q0 100 8 168q104 -23 481.5 -58.5t429.5 -44.5z" />
    <glyph glyph-name="g" unicode="g" horiz-adv-x="1112" 
d="M1104 477q0 -123 -19 -379q-166 -45 -563 -45q-60 0 -338 4q-36 15 -65 333t-29 706q0 393 612 393q165 0 377 -35q0 -159 -28 -242q-136 68 -334 68q-249 0 -424 -94q-12 -94 -12 -348q0 -410 34 -482q30 -67 142 -67q65 0 131.5 5t147.5 17.5t131.5 41t50.5 69.5
q0 45 -0.5 67t-3 51t-7 41t-14.5 28t-22.5 21t-33.5 11t-46 7t-62 1q-192 0 -301 -33q0 160 23 224h247q197 0 361 49q45 -136 45 -412z" />
    <glyph glyph-name="h" unicode="h" horiz-adv-x="1263" 
d="M1243 1311q-84 -331 -84 -697v-491q1 -80 9 -179t8 -116q0 -25 -10 -35t-31 -10q-87 0 -153.5 35.5t-66.5 97.5q0 36 21.5 176.5t21.5 171.5q0 207 -163 207h-433q-26 -237 -26 -389q0 -128 18 -211q-43 -2 -116 -2h-144q-29 0 -31 -2q25 105 48.5 441t23.5 624
q0 320 -24 434q277 6 323 18q-5 -94 -34 -284.5t-29 -272.5q0 -56 19 -85.5t67 -39.5q76 -18 113.5 -25.5t101 -13.5t143.5 -6q35 0 62 5.5t45 13t30 24t18 28.5t9 38t3.5 41.5t0.5 48.5v8q0 1 -2 113.5t-2 138.5q0 143 35 236q123 -29 229 -41z" />
    <glyph glyph-name="i" unicode="i" horiz-adv-x="360" 
d="M326 31q-105 10 -193 10h-41q-17 45 -38 510.5t-21 660.5q0 44 11.5 76.5t27 49.5t42 28t44 14t46 5.5t36.5 3.5q-7 -107 -7 -246q0 -198 9.5 -383.5t21.5 -306.5t27 -223.5t23 -142.5t12 -56z" />
    <glyph glyph-name="j" unicode="j" horiz-adv-x="1214" 
d="M1180 1143q0 -704 -148 -1202q-64 -15 -151 -15q-67 0 -176 7t-243.5 21.5t-230 45.5t-98.5 72l-31 295l232 -21q15 -117 47 -160q142 -20 287 -20q206 0 225 55q94 281 94 625q0 388 -190 403l16 205q307 -35 340 -49q27 -15 27 -262z" />
    <glyph glyph-name="k" unicode="k" horiz-adv-x="1239" 
d="M1239 -211q-36 -29 -266 -106q-13 39 -46 146.5t-56 177.5t-58.5 175.5t-65.5 175t-64.5 138t-67.5 103t-62 34.5q-41 0 -97 -52.5t-96.5 -128t-40.5 -133.5q0 -157 39 -296q-84 -14 -290 -37l-35 30q76 25 76 965q0 67 -3.5 218t-3.5 241l267 -13q-6 -86 -33 -624
q88 12 379 315q93 97 163.5 185t96 129.5t37.5 66.5q7 0 15 -3t18.5 -10.5t20 -15t24 -20.5t25 -23.5t27.5 -28.5t28 -29.5t30.5 -32.5t30.5 -33q0 -23 -57 -76t-181 -146q-248 -187 -248 -252q0 -73 216 -497q22 -42 123 -239.5t155 -303.5z" />
    <glyph glyph-name="l" unicode="l" horiz-adv-x="913" 
d="M913 57q-26 -20 -219 -20q-30 0 -161.5 3t-159.5 3q-78 0 -273 -68q-5 134 -11.5 433.5t-6.5 367.5q-13 155 -38 378.5t-46 320.5q77 -5 92 -5q34 0 149 8.5t132 8.5q-74 -65 -74 -694q0 -541 55 -541q230 0 561 12q-1 -10 -2.5 -28.5t-2.5 -33.5t-1 -30q0 -56 6 -115z
" />
    <glyph glyph-name="m" unicode="m" horiz-adv-x="1626" 
d="M1595 -117q-46 4 -67 4h-64q-97 0 -170 -8q0 100 7.5 534.5t7.5 463.5q0 137 -49 137q-12 0 -21 -6q-8 -42 -176 -579t-176 -576l-88 -29q-1 16 -7 42t-20 68.5t-28 82t-40.5 107.5t-47 120.5t-58 145.5t-63.5 157t-73.5 180.5t-78.5 192.5q-52 -68 -61 -365
q-4 -132 -6 -261t-2.5 -170t-5 -99.5t-12.5 -94.5t-26 -110q-12 0 -55 9t-57 9q-26 0 -95 -16v78q0 178 56 1466q125 23 188 23q112 0 164.5 -47t91.5 -191q79 -287 153 -480.5t118 -193.5q17 0 87 179.5t152 405t107 279.5l301 25q32 -43 32 -256q0 -31 -5 -184.5
t-5 -186.5q0 -136 21.5 -323.5t70.5 -532.5z" />
    <glyph glyph-name="n" unicode="n" horiz-adv-x="1368" 
d="M1305 -43q0 -68 -197 -80q-4 5 -129.5 156.5t-208.5 259.5q-66 91 -141.5 207.5t-117 180.5t-100.5 128t-122 98q-27 -53 -27 -157v-101q0 -32 4 -86q4 -63 35.5 -370t34.5 -343q-86 11 -141 11q-57 0 -119 -6q0 126 -23 774t-30 727q109 20 217 20h26
q84 -177 276.5 -440t440.5 -496l43 13q0 170 -48 533t-48 423q122 16 209 16h45q11 -29 19 -76t15.5 -146t12.5 -185t15.5 -282.5t19.5 -348.5q15 -264 39 -430z" />
    <glyph glyph-name="o" unicode="o" horiz-adv-x="1347" 
d="M1329 940q0 -295 -47 -606q0 -4 -18 -61t-36 -131.5t-18 -121.5q0 -30 2 -32q-155 -70 -401 -70q-349 0 -614 137q-68 467 -68 670q0 445 231 791q114 4 172 4q232 0 494 -25q29 -3 129 -29.5t119 -29.5q55 -201 55 -496zM1081 999q0 219 -20 269q-314 55 -408 55
q-73 0 -155 -16q-144 -372 -144 -705q0 -279 135 -387q303 -29 318 -29q125 0 168 37q39 32 72.5 281.5t33.5 494.5z" />
    <glyph glyph-name="p" unicode="p" horiz-adv-x="1148" 
d="M1137 918q0 -308 -129 -637q-72 -7 -134 -7q-71 0 -246.5 11t-252.5 18q-70 -46 -70 -166q0 -126 51 -225q-58 -6 -129 -6q-2 2 -20 2h-119q-29 0 -43 2q0 42 34 715.5t34 726.5q798 0 942 -4q82 -180 82 -430zM944 893q0 169 -24 207q-156 20 -420 20q-136 0 -160 -43
q0 -1 -3.5 -27t-9 -69.5t-10.5 -96.5t-8.5 -119t-3.5 -126q0 -79 14 -104h508q55 0 86 97.5t31 260.5z" />
    <glyph glyph-name="q" unicode="q" horiz-adv-x="1163" 
d="M1264 -131q-114 -120 -211 -148q-46 46 -105 127l-98 134q-132 -11 -281 -11q-382 0 -483 52q-68 387 -68 776q0 459 113 639q37 61 625 61q164 0 198 -6q111 -21 111 -608q0 -519 -45 -819q140 -127 244 -197zM852 612q0 297 -70 666h-32q-30 0 -156 5t-152 5
q-85 0 -135.5 -41.5t-77 -142t-26.5 -273.5q0 -176 41.5 -379.5t91.5 -261.5q70 -6 141 -6q86 0 185 9q-140 134 -267 190l248 197q6 -116 186 -320q23 202 23 352z" />
    <glyph glyph-name="r" unicode="r" horiz-adv-x="1157" 
d="M1137 1014q0 -206 -47 -541h-97q-122 0 -175.5 -6t-53.5 -27q0 -54 70 -202t159.5 -280.5t134.5 -139.5q0 -75 -274 -183q-16 45 -47 132q-35 99 -53 148t-49.5 133.5t-51 127.5t-48.5 105t-51.5 93t-50.5 64t-55.5 46.5t-56.5 13.5q-57 0 -75.5 -40.5t-18.5 -168.5
q0 -274 74 -301q-25 -31 -101 -31q-40 0 -112.5 4.5t-98.5 5.5q56 847 56 1014q0 286 -37 514q46 6 131 6q140 0 355 -13.5t394 -33.5q179 -3 179 -440zM958 928q0 197 -36 315q-185 27 -443 27q-124 0 -190 -15v-520q118 -37 190.5 -43t378.5 -6q100 0 100 242z" />
    <glyph glyph-name="s" unicode="s" horiz-adv-x="1200" 
d="M1192 635q0 -103 -8.5 -178.5t-30.5 -145t-61 -115.5t-98.5 -80.5t-144.5 -50.5t-198 -16q-194 0 -483 66q2 27 4.5 57.5t3.5 47t3 36t3 28.5t3 20.5t4 16.5t6 11.5t8 10.5t10 9q157 -92 403 -92q204 0 355 68q18 82 18 143q0 118 -65 170.5t-217 52.5q-26 0 -158 -7
t-160 -7q-146 0 -217 41q-18 10 -39.5 129.5t-21.5 193.5q0 241 110 364.5t322 123.5q263 0 639 -94q-5 -95 -17.5 -169t-29.5 -91q-227 133 -541 133q-170 0 -256 -45q-19 -84 -19 -142q0 -118 67 -171.5t220 -53.5q27 0 156.5 7t159.5 7q63 0 102.5 -3.5t72 -15.5
t49.5 -29t28.5 -50.5t14.5 -74.5t3 -105z" />
    <glyph glyph-name="t" unicode="t" horiz-adv-x="1177" 
d="M1159 1346q17 -92 17 -201q0 -29 -7 -53q-6 1 -68.5 18.5t-130 33t-98.5 15.5q-8 0 -23.5 1t-23.5 1q-25 0 -43 -5t-38.5 -24t-34 -52.5t-24 -95t-13.5 -146.5q0 -29 -6.5 -500.5t-6.5 -513.5q-158 35 -325 35q20 80 47 358q78 818 78 924q-77 22 -115 22
q-143 0 -332 -63q15 123 15 235q169 11 309 11q101 0 271.5 -4.5t219.5 -4.5q79 0 199 4.5t133 4.5z" />
    <glyph glyph-name="u" unicode="u" horiz-adv-x="1179" 
d="M1133 -72q-128 -32 -357 -32q-317 0 -477 32q-20 4 -53 10q-78 13 -101 29q-36 26 -46 112q-7 68 -7 324q0 72 4 357.5t4 343.5q0 165 -10 233q80 17 125 17q66 0 172 -29q-20 -59 -51 -410.5t-31 -537.5q0 -48 0.5 -74.5t5.5 -59.5t9 -48t20 -35.5t30 -27.5t47 -17.5
t62 -13t83.5 -6t104.5 -3.5h132q166 0 166 635q0 43 -8.5 266.5t-8.5 286.5q23 -1 54.5 -2.5t46.5 -2t36 -2.5t30 -4.5t21 -8.5t16 -13.5t9.5 -20.5t6.5 -29t1 -38q0 -31 -15 -553t-21 -678z" />
    <glyph glyph-name="v" unicode="v" horiz-adv-x="1382" 
d="M1382 1303q-173 -348 -299 -709q-9 -24 -121.5 -348.5t-132.5 -374.5h-186q-39 154 -158.5 482t-232.5 625.5t-131 360.5q10 6 88.5 19.5t134.5 13.5q28 0 55 -6q-4 -28 -4 -41q0 -119 92.5 -377t262.5 -608q221 465 354 1032q97 -22 278 -69z" />
    <glyph glyph-name="w" unicode="w" horiz-adv-x="2193" 
d="M2193 1323q-1 -4 -80.5 -191.5t-175 -424.5t-135.5 -359q-87 -267 -114 -504l-265 21q-103 386 -245 1005q-26 -50 -54.5 -117.5t-55 -139t-53 -150.5t-49.5 -154t-44.5 -146t-38 -130.5t-29 -104.5t-18.5 -70l-7 -24v2q0 2 2 4h-186q-39 149 -163 472.5t-245 625.5
t-141 362q43 13 116.5 25t113.5 12q17 0 49 -4q-4 -28 -4 -39q0 -234 358 -940q258 565 348 996q17 -1 281 -64q-27 -40 -27 -121q0 -219 213 -848q77 47 217 484q107 334 156 557q128 -9 276 -35z" />
    <glyph glyph-name="x" unicode="x" horiz-adv-x="1134" 
d="M1128 63q-100 -31 -278 -69q-42 171 -227 512q-2 0 -55 -95.5t-117 -228t-86 -207.5h-117q-104 0 -172 -12q77 183 413 774q-12 22 -113 172t-207 318t-146 256q46 -4 61 -4l227 12q28 -77 101.5 -205t133.5 -219t60 -88q112 243 141 325t50 201q61 -9 284 -51
q-34 -75 -342 -709q73 -122 389 -682z" />
    <glyph glyph-name="y" unicode="y" horiz-adv-x="1099" 
d="M1100 1315q-3 -5 -60 -93.5t-125.5 -196t-162.5 -261t-177 -295t-162 -290t-124 -253.5q-200 23 -275 23h-14q188 345 424 706q-5 10 -91.5 181t-169.5 347t-112 267q72 -14 287 -27q15 -77 72 -212.5t107 -235.5t50 -94q196 317 256 518q26 -4 277 -84zM1100 1315
q2 2 2 4q0 -2 -2 -4z" />
    <glyph glyph-name="z" unicode="z" horiz-adv-x="1171" 
d="M1171 1413q-14 -35 -103.5 -197.5t-188 -340.5t-195 -379.5t-127.5 -313.5q21 6 46 11.5t56.5 9.5t57.5 7.5t66 6t64 4.5t69.5 3.5t65 2.5t68 2.5t62.5 1.5l-35 -297q-211 19 -426 19q-345 0 -514 -39q13 37 139.5 279.5t256 518.5t165.5 423q-2 -2 -16 -2h-49
q-30 0 -159.5 6t-156.5 6q-153 0 -243 -33q28 98 28 143q0 74 -36 142q162 -49 452 -49q366 0 653 65z" />
    <glyph glyph-name="braceleft" unicode="{" horiz-adv-x="919" 
d="M737 1536h23q-19 -55 -19 -96q0 -42 15 -82h-31q-134 0 -192 -79t-58 -249q-4 -51 -7.5 -82t-11.5 -75t-18 -71.5t-28 -61t-41.5 -55t-58 -41.5t-77.5 -32q59 -19 101.5 -53t67 -74t38.5 -97t18.5 -110.5t4.5 -125.5q0 -168 67.5 -249t188.5 -81q23 0 37 2
q-15 -34 -15 -68q0 -28 23 -92h-25q-212 0 -319 127.5t-119 374.5v31q0 55 -12.5 105.5t-37 93t-66.5 68t-97 25.5h-22q10 65 10 134q0 44 -13 88q10 -2 29 -2q55 0 96.5 26.5t64.5 71t34.5 96t11.5 107.5v22q6 127 29.5 213.5t74.5 143.5q58 64 146 105.5t188 41.5z" />
    <glyph glyph-name="bar" unicode="|" horiz-adv-x="315" 
d="M193 1382q-23 -227 -23 -706q0 -252 7.5 -543t23.5 -416q-47 15 -68 15t-59 -6q11 102 18.5 372.5t7.5 476.5q0 516 -22 809q49 11 59 11q23 0 56 -13z" />
    <glyph glyph-name="braceright" unicode="}" horiz-adv-x="919" 
d="M96 1536h23q100 0 188 -41.5t146 -105.5q51 -57 74.5 -143.5t29.5 -213.5v-22q0 -78 18 -142.5t66 -111.5t121 -47q27 0 31 2q-15 -37 -15 -97q0 -49 13 -125h-23q-73 0 -123.5 -45t-71 -108.5t-20.5 -138.5q0 -5 1 -15.5t1 -15.5q-12 -247 -119 -374.5t-319 -127.5h-25
q21 58 21 92q0 24 -13 68q14 -2 35 -2q123 0 190.5 81t67.5 249q0 72 4.5 125.5t18.5 110.5t38.5 97t67 74t101.5 53q-43 12 -77.5 32t-58 41.5t-41.5 55t-28 61t-18 71.5t-11.5 75t-7.5 82q0 170 -58 249t-192 79h-31q15 40 15 82q0 41 -19 96z" />
    <glyph glyph-name="exclamdown" unicode="&#xa1;" horiz-adv-x="538" 
d="M96 -133q0 36 -1 126t-1 152q0 665 17 945q92 10 127 10q44 0 75 -10q-4 -262 -4 -338q0 -167 2.5 -279t11.5 -196t15 -124.5t23 -125.5t26 -138q0 -28 -125 -28q-151 0 -166 6zM86 1356q0 47 52.5 83t103.5 36q114 0 114 -156q0 -109 -104 -109q-63 0 -114.5 43.5
t-51.5 102.5z" />
    <glyph glyph-name="cent" unicode="&#xa2;" horiz-adv-x="1040" 
d="M682 1395l-18 -111q-2 -2 -2 -6v-8q0 -3 -3 -6q198 -11 349 -39q0 -119 -39 -181q-145 60 -326 66q-14 -161 -14 -385q0 -179 6 -348q70 2 278 18q30 -59 33 -180q-48 0 -140 -7t-126 -7h-33q5 -96 19 -205q-52 -10 -76 -10q-73 0 -103 6.5t-30 25.5q0 47 14 187
q-67 2 -159.5 6t-146.5 6t-61 2q-47 0 -47 389v59q0 90 0.5 131.5t3.5 109.5t11 97t22 75t36 65t53.5 46t75.5 38t100 21t128 14q-1 10 -5.5 37t-4.5 36q0 15 17 88q188 0 188 -30zM225 600q0 -55 3 -90.5t13.5 -62t23 -40.5t39 -22t54 -10t74.5 -2h53q0 9 1 25t1 22v684
q-128 -12 -225 -49q-37 -143 -37 -455z" />
    <glyph glyph-name="sterling" unicode="&#xa3;" horiz-adv-x="1030" 
d="M928 47l-23 -57q-66 8 -249 16t-337 8q-177 0 -309 -22q136 224 228 555q-82 0 -162 -19q4 62 4 95q0 107 -21 184q39 0 113.5 -5t130.5 -5q26 148 66 266.5t98.5 212.5t141 145.5t184.5 51.5q93 0 223 -31q-53 -65 -78.5 -133t-36.5 -156q-46 82 -129 82
q-29 0 -53.5 -6.5t-45 -22t-37 -33.5t-31.5 -49t-27 -60.5t-25 -76.5t-23 -88t-24 -102h135q16 0 49 14q0 -15 -2 -61t-2 -66v-53q0 -23 19 -109q-168 14 -267 25q-7 -52 -18 -96.5t-27 -96.5t-26 -92q39 0 124 -2t130 -2h239q45 0 68 2q0 -15 -2 -56t-2 -59v-69q0 -1 4 -29
z" />
    <glyph glyph-name="yen" unicode="&#xa5;" horiz-adv-x="1286" 
d="M1059 309v-59q-39 33 -189 33q-80 0 -157 -7q-11 -121 -11 -165q0 -70 13 -107q-105 6 -164 6q-115 0 -154 -20q22 40 80 272h-51q-55 0 -90 6v224q11 0 77.5 -1.5t112.5 -1.5q25 146 25 195q-46 4 -80 4q-126 0 -158 -29v52q0 117 6 196q-1 0 20 -2.5t59 -7t73 -8.5
q-38 75 -114.5 211t-131 238t-71.5 153q49 -14 288 -23q15 -61 71 -176t113 -218t58 -105q25 40 72 113.5t75 117.5t61 99.5t52 97.5t27 73q24 -3 276 -79q-22 -37 -161 -227t-201 -283h151v-224q-27 -6 -71 -6q-18 0 -191 13q-18 -59 -35 -177h11q142 0 303 11
q6 -82 6 -189z" />
    <glyph glyph-name="dieresis" unicode="&#xa8;" horiz-adv-x="1056" 
d="M788 1489q-41 -10 -71 -10q-11 0 -45 2.5t-64 3.5q-8 66 -8 123v32q0 17 31.5 24t58.5 7q16 0 29 -2t34 -6.5t40 -7.5q8 -73 8 -103q0 -13 -13 -63zM438 1495q-56 -16 -114 -16h-48q-30 0 -30 88q0 8 0.5 16.5t1.5 14.5v6v32q0 27 119 35q17 0 75 -10q9 -82 9 -102
q0 -14 -13 -64z" />
    <glyph glyph-name="copyright" unicode="&#xa9;" horiz-adv-x="1751" 
d="M201 618q0 -139 52.5 -264t142 -214.5t214.5 -142t264 -52.5q186 0 341 89t245 244t90 340q0 139 -53 264.5t-143 215.5t-215.5 143t-264.5 53q-185 0 -340 -90t-244 -245t-89 -341zM127 618q0 154 58.5 293t158.5 239t238.5 159t291.5 59q154 0 293 -59t239 -159
t159 -239t59 -293q0 -153 -59 -291.5t-159 -238.5t-239 -158.5t-293 -58.5q-205 0 -376.5 99.5t-271 271t-99.5 376.5zM1300 309q-108 -196 -374 -196q-258 0 -378 119.5t-120 381.5q0 266 112.5 387t352.5 121q297 0 399 -196q-51 -39 -143 -62q-71 127 -275 127
q-155 0 -220.5 -90.5t-65.5 -304.5q0 -187 74.5 -263.5t255.5 -76.5q179 0 249 125q94 -38 133 -72z" />
    <glyph glyph-name="ordfeminine" unicode="&#xaa;" horiz-adv-x="686" 
d="M328 1145q-67 0 -100.5 -15t-37.5 -59q10 -41 39.5 -57.5t81.5 -16.5q61 0 108.5 20t47.5 56q0 26 -26.5 43.5t-55.5 23t-57 5.5zM207 1278l-19 -8q-45 14 -90 37q58 141 242 141q161 0 213 -107v2q27 -64 27 -147v-113q0 -82 16 -176h-35q-22 0 -84 -4q-10 45 -10 47
q-57 -51 -164 -51q-108 0 -164.5 40.5t-56.5 131.5q0 80 60 126t175 46q53 0 107 -14l41 -21q-4 86 -29.5 114t-99.5 28q-101 0 -129 -72z" />
    <glyph glyph-name="guillemotleft" unicode="&#xab;" horiz-adv-x="1062" 
d="M504 623q128 63 199 114.5t198 173.5q2 -12 5 -23t5 -19t5.5 -17.5t5 -14.5t6.5 -15t6 -13t7.5 -14t7.5 -12.5t9 -15t9 -15.5q-18 -10 -109 -63t-150 -82t-110 -44q30 -16 63.5 -37t59.5 -38t66 -46t60.5 -44.5t68 -51t63.5 -47.5q-10 -15 -41 -55t-45 -72q-53 51 -92 87
t-78.5 66t-60 44.5t-72 48t-78.5 51.5v14q0 18 -3.5 60t-4.5 80zM74 623q128 63 199 114.5t198 173.5q2 -12 5 -23t5 -19t5.5 -17.5t5 -14.5t6.5 -15t6 -13t7.5 -14t7.5 -12.5t9 -15t9 -15.5q-18 -10 -109 -63t-150 -82t-110 -44q30 -16 63.5 -37t59.5 -38t66 -46
t60.5 -44.5t68 -51t63.5 -47.5q-10 -15 -41 -55t-45 -72q-53 51 -92 87t-78.5 66t-60 44.5t-72 48t-78.5 51.5v14q0 18 -3.5 60t-4.5 80z" />
    <glyph glyph-name="registered" unicode="&#xae;" horiz-adv-x="1236" 
d="M498 881v-62h71q55 0 107 10h-2q78 11 78 84q0 44 -26.5 71.5t-70.5 27.5h-53q-57 0 -98 -8q-6 -62 -6 -123zM655 743h-24q39 -33 104.5 -93.5t114 -103.5t72.5 -57q-108 7 -123 7q-32 0 -64 -4q-137 179 -233 247q-2 -2 -2 -37v-43q0 -77 10 -167q-46 4 -59 4
q-10 0 -56 -4q11 180 11 366q0 138 -9 240q74 14 207 14q131 0 194.5 -42.5t63.5 -135.5q0 -98 -50.5 -144.5t-156.5 -46.5zM174 784q0 -189 131 -319.5t320 -130.5q188 0 320 131t132 319t-131 320.5t-319 132.5q-187 0 -320 -132.5t-133 -320.5zM109 786q0 142 69.5 262.5
t189.5 190.5t261 70q142 0 262.5 -70t190 -190.5t69.5 -262.5q0 -106 -41 -202t-111 -166t-167 -111t-203 -41t-202 41t-166 111t-111 166t-41 202z" />
    <glyph glyph-name="macron" unicode="&#xaf;" horiz-adv-x="794" 
d="M723 1493q-166 16 -375 16q-133 0 -260 -10q2 18 2 57q0 56 -12 111q173 -10 465 -10h155q21 0 23 2q-4 -78 -4 -96q0 -49 6 -70z" />
    <glyph glyph-name="degree" unicode="&#xb0;" horiz-adv-x="808" 
d="M190 1067q0 -221 211 -221q220 0 220 219q0 233 -209 233q-128 0 -175 -50.5t-47 -180.5zM729 1081q0 -148 -82 -229.5t-231 -81.5q-330 0 -330 274q0 173 75.5 251.5t241.5 78.5q326 0 326 -293z" />
    <glyph glyph-name="twosuperior" unicode="&#xb2;" horiz-adv-x="628" 
d="M182 887l367 31q14 -43 14 -62q0 -6 -2 -27.5t-2 -40.5q-290 11 -393 11q-59 0 -109 -4q8 40 12.5 93.5t6.5 86t13 69.5t32 58t64 37t108 20q27 1 39.5 1.5t33.5 2.5t30 5.5t20.5 9.5t15.5 16t4 23q0 74 -22.5 96t-100.5 22q-55 0 -84 -16t-30 -55q-13 3 -38 6.5t-43 9
t-36 16.5q5 52 40 86t81.5 47t103.5 13q55 0 95 -8t75 -28t52.5 -60.5t17.5 -100.5q0 -64 -20.5 -104.5t-53 -57t-72 -23.5t-79.5 -10.5t-72.5 -12t-53 -35t-20.5 -72.5q0 -19 6 -43z" />
    <glyph glyph-name="threesuperior" unicode="&#xb3;" horiz-adv-x="579" 
d="M68 913l8 15q31 20 98 37q12 -41 40.5 -57.5t78.5 -16.5q73 0 95 18.5t22 85.5q0 34 -46.5 56t-97.5 22q-9 0 -67 -14v59q0 6 1 31.5t1 38.5q46 -12 82 -12q47 0 82.5 20t35.5 53q0 54 -27 73t-85 19q-54 0 -79.5 -13.5t-35.5 -57.5q-53 9 -111 39q23 139 224 139
q111 0 170 -43.5t59 -144.5q0 -42 -18.5 -77.5t-48.5 -54.5q73 -48 73 -133q0 -122 -55 -166.5t-180 -44.5q-195 0 -219 129z" />
    <glyph glyph-name="acute" unicode="&#xb4;" horiz-adv-x="1056" 
d="M338 1475q-16 54 -59 133q32 13 59.5 24.5t48.5 20.5t43.5 19l36 16t34.5 16t29.5 14t31 15.5t29 15t33 17t35.5 18.5q21 -83 52 -139q-127 -41 -186.5 -69t-186.5 -101z" />
    <glyph glyph-name="cedilla" unicode="&#xb8;" horiz-adv-x="942" 
d="M362 23h113v-35q0 -22 13.5 -34.5t34 -17t44.5 -16t44.5 -28t34 -55t13.5 -95.5q0 -53 -15.5 -88.5t-47.5 -53t-68.5 -24t-89.5 -6.5q-42 0 -80.5 11t-73.5 44t-42 84q29 5 50.5 18t49.5 21q15 -82 109 -82q53 0 77.5 21t24.5 75q0 32 -19.5 51t-48 30t-56.5 24.5
t-47.5 44.5t-19.5 80v31z" />
    <glyph glyph-name="onesuperior" unicode="&#xb9;" horiz-adv-x="393" 
d="M160 825q16 53 16 254q0 137 -4 199q-21 -21 -43 -57q-53 47 -84 55q86 86 129 186q22 -22 57 -22q18 0 45 10q-10 -95 -10 -272q0 -185 19 -383q-10 3 -53 12.5t-72 17.5z" />
    <glyph glyph-name="ordmasculine" unicode="&#xba;" horiz-adv-x="712" 
d="M340 1337q-86 0 -122 -54.5t-36 -178.5q0 -115 30.5 -159t115.5 -44q94 0 127.5 53.5t33.5 167.5q0 108 -30.5 161.5t-118.5 53.5zM350 1446q60 0 105 -15t73 -42t45.5 -69t24 -89.5t6.5 -110.5q0 -329 -270 -329q-94 0 -150 27t-86 98.5t-30 197.5q0 168 68 250t214 82z
" />
    <glyph glyph-name="guillemotright" unicode="&#xbb;" horiz-adv-x="1030" 
d="M958 623q-1 -38 -4.5 -80t-3.5 -60v-14q-27 -18 -78.5 -51.5t-72 -48t-60 -44.5t-78.5 -66t-92 -87q-14 32 -45 72t-41 55q16 12 63.5 47.5t68 51t60.5 44.5t66 46t59.5 38t63.5 37q-51 15 -110.5 44.5t-148.5 81.5t-109 63q22 36 29.5 50t17.5 42.5t18 66.5
q130 -125 200 -176.5t197 -111.5zM549 623q-1 -38 -4.5 -80t-3.5 -60v-14q-27 -18 -78.5 -51.5t-72 -48t-60 -44.5t-78.5 -66t-92 -87q-14 32 -45 72t-41 55q16 12 63.5 47.5t68 51t60.5 44.5t66 46t59.5 38t63.5 37q-51 15 -110 44t-150 82t-109 63q40 67 51 100
q8 25 15 59q130 -125 200 -176.5t197 -111.5z" />
    <glyph glyph-name="onequarter" unicode="&#xbc;" horiz-adv-x="1302" 
d="M1153 1255l8 -61q-193 -223 -481 -604t-432 -600q-75 16 -84 16q-36 0 -150 -20q224 252 493.5 608t483.5 666q52 10 84 10q51 0 78 -15zM1071 702l6 -340v-59h23q23 0 33 -20.5t10 -67.5v-109q-8 0 -29 1.5t-24 1.5q3 -46 20 -127q-39 20 -106 20q-25 0 -53 -2t-31 -2
q0 9 4 50t4 65q-12 0 -33 1t-29 1h-200q-13 0 -33 -11q-12 82 -12 125v58q56 54 113 123.5t133 172t98 130.5q28 -19 61 -19q32 0 45 8zM176 571l-2 433q-6 -8 -27 -29q-24 20 -34 27t-39 21t-76 30q148 136 192 239q36 -22 68 -22q3 0 78 16q-19 -90 -19 -149
q0 -160 17 -578q-75 16 -111 16q-11 0 -47 -4zM858 297h84q0 35 -1 77t-1 58q-60 -66 -102 -133q2 -2 20 -2z" />
    <glyph glyph-name="onehalf" unicode="&#xbd;" horiz-adv-x="1400" 
d="M883 170l127 14h69q125 0 162 13q29 -73 29 -136q-4 -16 -4 -67q-260 10 -406 10q-20 0 -74 -3t-65 -3q7 34 14.5 70.5t10 50t4.5 26.5t2 23v25q0 116 57 177.5t203 61.5q73 5 82 13q8 6 8 24q0 35 -17.5 44t-78.5 9q-46 0 -71 -16.5t-26 -56.5q-8 1 -25 2.5t-26 3
t-25.5 6t-34.5 14.5t-42 25q7 103 77 154t164 51q46 0 82 -5.5t69.5 -21t56 -40.5t35.5 -66.5t13 -96.5q0 -62 -14 -105.5t-38 -64.5t-54.5 -34t-63 -15.5t-65.5 -6.5t-60 -9t-47.5 -22.5t-27.5 -47.5zM1157 1255l6 -61q-199 -237 -485 -614t-426 -590q-53 16 -86 16
q-24 0 -150 -20q402 447 979 1274q58 10 84 10q51 0 78 -15zM205 588l4 305q-2 4 -2 31v61q0 25 -2 39q-5 -5 -25 -37q-20 20 -20 21v-4q-10 10 -18 15.5t-36 17t-81 30.5q151 142 194 242q41 -27 57 -27h9q67 13 77 16q-20 -137 -20 -297l23 -428q-60 17 -111 17h-23
q-24 0 -26 -2z" />
    <glyph glyph-name="threequarters" unicode="&#xbe;" horiz-adv-x="1404" 
d="M74 762l141 63q13 -41 39 -57t70 -16q62 0 80 10.5t18 50.5q0 12 -44 24.5t-85 12.5q-13 0 -43 -7t-41 -9v204q-71 14 -137 56q12 60 36 101t59 60.5t69.5 27t78.5 7.5q118 0 183 -51t65 -170q0 -80 -39 -125q45 -56 45 -131q0 -138 -60 -191t-194 -53q-200 0 -241 193z
M1225 1255l8 -61q-194 -224 -482.5 -604.5t-431.5 -599.5q-53 16 -83 16q-36 0 -150 -20q403 449 979 1274q58 10 82 10q51 0 78 -15zM1233 700l6 -338v-61q5 0 15 2t28 2q29 -50 29 -96q0 -17 -13 -103q-8 0 -25 1.5t-20 1.5h-4q22 -123 23 -125q-70 18 -107 18h-26l-63 -4
h-1q16 99 19 117h-271q-10 0 -28 -6q-15 73 -15 178q89 87 240 288q3 3 6 8.5t6 8.5l19 24q9 12 75 97q24 -17 64 -17h20q1 0 3.5 0.5t8 1.5t11.5 2zM319 1108q-48 0 -69 -12.5t-31 -57.5q35 -10 76 -10h18q36 0 65.5 9t35.5 22q-3 49 -95 49zM1102 297v135
q-19 -21 -105 -133q4 -2 27 -2h78z" />
    <glyph glyph-name="questiondown" unicode="&#xbf;" horiz-adv-x="1071" 
d="M68 217q0 223 135 305q28 10 74.5 24t77.5 24.5t71 26t65.5 33.5t49.5 42.5t35.5 57.5t11.5 73q0 99 -56 264q1 0 39.5 3t84.5 6t67 3q59 0 68 -12q9 -13 23.5 -113t14.5 -145q0 -193 -149 -287l-70 -30q-71 -34 -207 -91q-147 -65 -147 -172q0 -42 18 -94
q159 -72 351 -72q233 0 407 91q34 -40 37 -240q-263 -53 -573 -53q-198 0 -313 95.5t-115 260.5zM496 1356q0 46 52 82.5t101 36.5q117 0 117 -156q0 -109 -104 -109q-63 0 -114.5 43.5t-51.5 102.5z" />
    <glyph glyph-name="Agrave" unicode="&#xc0;" 
d="M662 911q-196 -343 -199 -471h338q10 42 10 54q0 72 -149 417zM1333 68q-3 -11 -10.5 -22t-23.5 -25t-29.5 -24.5t-40.5 -29t-43 -28.5l-52 -32.5t-53 -33.5q-31 31 -83.5 174t-75.5 166q-208 27 -295 27q-340 0 -340 -306q-219 60 -269 72q119 256 193.5 424
t156.5 386.5t109 359.5q-41 8 -94 8q-60 0 -115 -19q-24 30 -24 219q76 -6 252 -6h260q54 0 142.5 2t111.5 2q12 0 19.5 -11t11 -34.5t4.5 -45t2 -57.5t2 -58q-35 -5 -109 -5q-12 0 -40 1.5t-46 1.5q-6 -12 -6 -35q0 -141 192 -559q200 -434 293 -512zM825 1427
q-195 117 -372 170q42 54 51 140q193 -110 381 -176q-37 -56 -60 -134z" />
    <glyph glyph-name="Aacute" unicode="&#xc1;" 
d="M662 911q-196 -343 -199 -471h338q10 42 10 54q0 72 -149 417zM1333 68q-3 -11 -10.5 -22t-23.5 -25t-29.5 -24.5t-40.5 -29t-43 -28.5l-52 -32.5t-53 -33.5q-31 31 -83.5 174t-75.5 166q-208 27 -295 27q-340 0 -340 -306q-219 60 -269 72q119 256 193.5 424
t156.5 386.5t109 359.5q-41 8 -94 8q-60 0 -115 -19q-24 30 -24 219q76 -6 252 -6h260q54 0 142.5 2t111.5 2q12 0 19.5 -11t11 -34.5t4.5 -45t2 -57.5t2 -58q-35 -5 -109 -5q-12 0 -40 1.5t-46 1.5q-6 -12 -6 -35q0 -141 192 -559q200 -434 293 -512zM524 1438
q-16 54 -59 133q102 41 170 72t97 45.5t114 58.5q22 -86 51 -139q-127 -41 -186.5 -69t-186.5 -101z" />
    <glyph glyph-name="Acircumflex" unicode="&#xc2;" 
d="M662 911q-196 -343 -199 -471h338q10 42 10 54q0 72 -149 417zM1333 68q-3 -11 -10.5 -22t-23.5 -25t-29.5 -24.5t-40.5 -29t-43 -28.5l-52 -32.5t-53 -33.5q-31 31 -83.5 174t-75.5 166q-208 27 -295 27q-340 0 -340 -306q-219 60 -269 72q119 256 193.5 424
t156.5 386.5t109 359.5q-41 8 -94 8q-60 0 -115 -19q-24 30 -24 219q76 -6 252 -6h260q54 0 142.5 2t111.5 2q12 0 19.5 -11t11 -34.5t4.5 -45t2 -57.5t2 -58q-35 -5 -109 -5q-12 0 -40 1.5t-46 1.5q-6 -12 -6 -35q0 -141 192 -559q200 -434 293 -512zM893 1448
q-124 56 -197 135q-70 -56 -215 -137q-21 46 -84 115q155 64 303 170q140 -109 287 -183q-62 -70 -94 -100z" />
    <glyph glyph-name="Atilde" unicode="&#xc3;" 
d="M662 911q-196 -343 -199 -471h338q10 42 10 54q0 72 -149 417zM1333 68q-3 -11 -10.5 -22t-23.5 -25t-29.5 -24.5t-40.5 -29t-43 -28.5l-52 -32.5t-53 -33.5q-31 31 -83.5 174t-75.5 166q-208 27 -295 27q-340 0 -340 -306q-219 60 -269 72q119 256 193.5 424
t156.5 386.5t109 359.5q-41 8 -94 8q-60 0 -115 -19q-24 30 -24 219q76 -6 252 -6h260q54 0 142.5 2t111.5 2q12 0 19.5 -11t11 -34.5t4.5 -45t2 -57.5t2 -58q-35 -5 -109 -5q-12 0 -40 1.5t-46 1.5q-6 -12 -6 -35q0 -141 192 -559q200 -434 293 -512zM874 1681
q43 -41 117 -94q-60 -117 -172 -117q-43 0 -148 38t-132 38q-33 0 -49.5 -20.5t-38.5 -79.5q-65 52 -127 82q25 59 78.5 101t121.5 42q38 0 136 -37t126 -37q53 0 88 84z" />
    <glyph glyph-name="Adieresis" unicode="&#xc4;" 
d="M662 911q-196 -343 -199 -471h338q10 42 10 54q0 72 -149 417zM1333 68q-3 -11 -10.5 -22t-23.5 -25t-29.5 -24.5t-40.5 -29t-43 -28.5l-52 -32.5t-53 -33.5q-31 31 -83.5 174t-75.5 166q-208 27 -295 27q-340 0 -340 -306q-219 60 -269 72q119 256 193.5 424
t156.5 386.5t109 359.5q-41 8 -94 8q-60 0 -115 -19q-24 30 -24 219q76 -6 252 -6h260q54 0 142.5 2t111.5 2q12 0 19.5 -11t11 -34.5t4.5 -45t2 -57.5t2 -58q-35 -5 -109 -5q-12 0 -40 1.5t-46 1.5q-6 -12 -6 -35q0 -141 192 -559q200 -434 293 -512zM932 1501
q-41 -10 -72 -10q-11 0 -44.5 2.5t-63.5 3.5q-9 74 -9 123v33q0 17 31.5 23.5t59.5 6.5q16 0 29 -2t33.5 -6.5t39.5 -7.5q8 -73 8 -102q0 -17 -12 -64zM582 1507q-56 -16 -115 -16h-47q-31 0 -31 88q0 8 0.5 16.5t0.5 14.5l1 6v33q0 29 119 34q18 0 76 -10q8 -73 8 -102
q0 -17 -12 -64z" />
    <glyph glyph-name="Aring" unicode="&#xc5;" 
d="M662 911q-196 -343 -199 -471h338q10 42 10 54q0 72 -149 417zM1333 68q-3 -11 -10.5 -22t-23.5 -25t-29.5 -24.5t-40.5 -29t-43 -28.5l-52 -32.5t-53 -33.5q-31 31 -83.5 174t-75.5 166q-208 27 -295 27q-340 0 -340 -306q-219 60 -269 72q119 256 193.5 424
t156.5 386.5t109 359.5q-41 8 -94 8q-60 0 -115 -19q-24 30 -24 219q76 -6 252 -6h260q54 0 142.5 2t111.5 2q12 0 19.5 -11t11 -34.5t4.5 -45t2 -57.5t2 -58q-35 -5 -109 -5q-12 0 -40 1.5t-46 1.5q-6 -12 -6 -35q0 -141 192 -559q200 -434 293 -512zM555 1583
q0 -127 123 -127q125 0 125 127q0 135 -119 135q-75 0 -102 -29.5t-27 -105.5zM891 1593q0 -95 -54.5 -149.5t-150.5 -54.5q-215 0 -215 180q0 115 49 166t158 51q213 0 213 -193z" />
    <glyph glyph-name="AE" unicode="&#xc6;" horiz-adv-x="1599" 
d="M1497 891q-8 -163 -20 -225q-23 -5 -127 -16t-212 -28.5t-173 -41.5q0 -216 23.5 -288.5t96.5 -72.5q56 0 219.5 17.5t178.5 17.5v-207q-69 -12 -217 -23.5t-277 -29t-217 -49.5q-6 152 -10 407q-14 -2 -41 -2h-299q-37 0 -60 2q-38 -58 -68.5 -181.5t-39.5 -190.5
q-79 32 -178 32q-7 0 -20.5 -1t-20.5 -1q0 1 37.5 140.5t124 498.5t190.5 834q2 0 56.5 -9t106.5 -15.5t157.5 -12.5t224.5 -6q138 0 264 3.5t201 7t88 3.5q-5 -18 -8 -186q-40 -5 -129 -10t-121 -9q-30 -4 -82 -10q-40 -5 -58 -7.5t-45 -8t-37 -10.5t-25 -15.5t-19.5 -22.5
t-10.5 -32t-7 -43.5t-1 -57.5q0 -142 62 -198q16 0 27 3t33.5 8t134 15t298.5 21zM539 1171q-53 -153 -140 -575q133 -43 357 -43q-9 306 -45 590q-69 18 -172 28z" />
    <glyph glyph-name="Ccedilla" unicode="&#xc7;" horiz-adv-x="1130" 
d="M1130 1415q-5 -151 -9.5 -185.5t-26.5 -53.5q-146 79 -369 79q-229 0 -391 -79q-29 -185 -29 -547q0 -76 0.5 -111t5 -83.5t10.5 -66.5t22 -44.5t35.5 -33t54 -16t73.5 -11t98 -1.5q92 0 259 20.5t167 36.5q24 0 50 -82.5t26 -132.5q0 -48 -87 -60.5t-345 -12.5v-13
q0 -22 13.5 -34.5t34 -17t44.5 -15.5t44.5 -27.5t34 -55t13.5 -95.5q0 -53 -15.5 -88.5t-47.5 -53t-68.5 -24t-89.5 -6.5q-42 0 -81 11t-74 44t-42 84q29 5 51 18t50 21q15 -82 108 -82q53 0 78 21t25 75q0 32 -19.5 51t-48 30t-56.5 24.5t-47.5 44.5t-19.5 80v8
q-336 0 -375 20q-63 29 -63 697q0 37 3 188t3 156q21 372 567 372q196 0 434 -49z" />
    <glyph glyph-name="Egrave" unicode="&#xc8;" horiz-adv-x="1339" 
d="M1339 1339q-18 -62 -28 -184q-41 2 -183 6.5t-252.5 9.5t-138.5 9q-84 -57 -84 -228q0 -107 43 -159h299q177 0 297 -15q-34 -66 -43 -221q-16 -16 -73 -16q-38 0 -215 18.5t-218 18.5q-78 0 -100 -20t-22 -75q0 -92 4 -147t14.5 -97.5t32 -62t52.5 -28.5t81 -9
q27 0 146 6.5t145 6.5q18 0 116 -5q-17 -70 -20 -206q-18 -7 -72 -7q-42 0 -227.5 6.5t-222.5 6.5q-185 0 -297 -23q0 19 27.5 527.5t27.5 533.5q0 65 -4 191q-50 18 -117 18q-106 0 -215 -47q13 88 35 307q113 -29 375.5 -50t515.5 -36.5t321 -28.5zM965 1438
q-194 117 -373 170q42 55 51 139q193 -110 381 -176q-35 -54 -59 -133z" />
    <glyph glyph-name="Eacute" unicode="&#xc9;" horiz-adv-x="1339" 
d="M1339 1339q-18 -62 -28 -184q-41 2 -183 6.5t-252.5 9.5t-138.5 9q-84 -57 -84 -228q0 -107 43 -159h299q177 0 297 -15q-34 -66 -43 -221q-16 -16 -73 -16q-38 0 -215 18.5t-218 18.5q-78 0 -100 -20t-22 -75q0 -92 4 -147t14.5 -97.5t32 -62t52.5 -28.5t81 -9
q27 0 146 6.5t145 6.5q18 0 116 -5q-17 -70 -20 -206q-18 -7 -72 -7q-42 0 -227.5 6.5t-222.5 6.5q-185 0 -297 -23q0 19 27.5 527.5t27.5 533.5q0 65 -4 191q-50 18 -117 18q-106 0 -215 -47q13 88 35 307q113 -29 375.5 -50t515.5 -36.5t321 -28.5zM670 1452
q-15 50 -60 133q102 41 170 72t97 45.5t114 58.5q22 -86 51 -139q-126 -41 -185 -69t-187 -101z" />
    <glyph glyph-name="Ecircumflex" unicode="&#xca;" horiz-adv-x="1339" 
d="M1339 1339q-18 -62 -28 -184q-41 2 -183 6.5t-252.5 9.5t-138.5 9q-84 -57 -84 -228q0 -107 43 -159h299q177 0 297 -15q-34 -66 -43 -221q-16 -16 -73 -16q-38 0 -215 18.5t-218 18.5q-78 0 -100 -20t-22 -75q0 -92 4 -147t14.5 -97.5t32 -62t52.5 -28.5t81 -9
q27 0 146 6.5t145 6.5q18 0 116 -5q-17 -70 -20 -206q-18 -7 -72 -7q-42 0 -227.5 6.5t-222.5 6.5q-185 0 -297 -23q0 19 27.5 527.5t27.5 533.5q0 65 -4 191q-50 18 -117 18q-106 0 -215 -47q13 88 35 307q113 -29 375.5 -50t515.5 -36.5t321 -28.5zM1051 1481
q-124 56 -197 135q-70 -56 -215 -137q-20 44 -84 114q155 64 303 170q136 -107 287 -182q-62 -70 -94 -100z" />
    <glyph glyph-name="Edieresis" unicode="&#xcb;" horiz-adv-x="1339" 
d="M1339 1339q-18 -62 -28 -184q-41 2 -183 6.5t-252.5 9.5t-138.5 9q-84 -57 -84 -228q0 -107 43 -159h299q177 0 297 -15q-34 -66 -43 -221q-16 -16 -73 -16q-38 0 -215 18.5t-218 18.5q-78 0 -100 -20t-22 -75q0 -92 4 -147t14.5 -97.5t32 -62t52.5 -28.5t81 -9
q27 0 146 6.5t145 6.5q18 0 116 -5q-17 -70 -20 -206q-18 -7 -72 -7q-42 0 -227.5 6.5t-222.5 6.5q-185 0 -297 -23q0 19 27.5 527.5t27.5 533.5q0 65 -4 191q-50 18 -117 18q-106 0 -215 -47q13 88 35 307q113 -29 375.5 -50t515.5 -36.5t321 -28.5zM1126 1501
q-41 -10 -71 -10q-11 0 -45 2.5t-64 3.5q-8 66 -8 123v33q0 12 20 19.5t37.5 9t32.5 1.5q16 0 29 -2t33.5 -6.5t39.5 -7.5q9 -83 9 -102q0 -14 -13 -64zM776 1507q-56 -16 -114 -16h-48q-30 0 -30 88q0 8 0.5 16.5t1.5 14.5v6v33q0 29 119 34q17 0 75 -10q8 -73 8 -102
q0 -17 -12 -64z" />
    <glyph glyph-name="Igrave" unicode="&#xcc;" horiz-adv-x="413" 
d="M377 1243q0 -1 -2.5 -12.5t-9 -40.5t-13.5 -62q-45 -202 -45 -579q0 -390 47 -754q-44 -12 -100 -12q-101 0 -140.5 6.5t-39.5 28.5q0 39 20.5 207.5t20.5 207.5v863q0 12 -6.5 46t-6.5 42q0 6 23 90q252 0 252 -31zM385 1366q-194 117 -373 170q42 55 51 139
q193 -110 381 -176q-35 -54 -59 -133z" />
    <glyph glyph-name="Iacute" unicode="&#xcd;" horiz-adv-x="413" 
d="M377 1243q0 -1 -2.5 -12.5t-9 -40.5t-13.5 -62q-45 -202 -45 -579q0 -390 47 -754q-44 -12 -100 -12q-101 0 -140.5 6.5t-39.5 28.5q0 39 20.5 207.5t20.5 207.5v863q0 12 -6.5 46t-6.5 42q0 6 23 90q252 0 252 -31zM61 1331q-16 54 -59 133q102 41 170 72t97 45.5
t114 58.5q22 -86 51 -139q-127 -41 -186.5 -69t-186.5 -101z" />
    <glyph glyph-name="Icircumflex" unicode="&#xce;" horiz-adv-x="413" 
d="M377 1243q0 -1 -2.5 -12.5t-9 -40.5t-13.5 -62q-45 -202 -45 -579q0 -390 47 -754q-44 -12 -100 -12q-101 0 -140.5 6.5t-39.5 28.5q0 39 20.5 207.5t20.5 207.5v863q0 12 -6.5 46t-6.5 42q0 6 23 90q252 0 252 -31zM440 1389q-122 55 -196 135q-75 -59 -215 -138
q-21 46 -84 115q155 64 303 170q136 -107 287 -182q-57 -64 -95 -100z" />
    <glyph glyph-name="Idieresis" unicode="&#xcf;" horiz-adv-x="413" 
d="M377 1243q0 -1 -2.5 -12.5t-9 -40.5t-13.5 -62q-45 -202 -45 -579q0 -390 47 -754q-44 -12 -100 -12q-101 0 -140.5 6.5t-39.5 28.5q0 39 20.5 207.5t20.5 207.5v863q0 12 -6.5 46t-6.5 42q0 6 23 90q252 0 252 -31zM500 1421q-41 -10 -72 -10q-11 0 -45 2.5t-64 3.5
q-8 66 -8 123v33q0 17 31.5 24t58.5 7q15 0 29 -2.5t34.5 -7t39.5 -7.5q8 -73 8 -102q0 -17 -12 -64zM150 1427q-56 -16 -115 -16h-47q-31 0 -31 88q0 8 0.5 16.5t0.5 14.5l1 6v33q0 27 119 35q12 0 76 -11q8 -73 8 -102q0 -17 -12 -64z" />
    <glyph glyph-name="Eth" unicode="&#xd0;" horiz-adv-x="1372" 
d="M1350 610q-2 -82 -30 -260.5t-71 -290.5q-8 -20 -155.5 -39.5t-251.5 -19.5h-523q-79 0 -79 84q0 19 2.5 39t6.5 48t9 127t8 253q-2 2 -20 2h-17q-107 0 -151 -29v51q0 117 6 197q0 1 26.5 -3t74 -10t85.5 -9q9 221 9 364v64q-94 49 -164 49q-49 0 -70 -8v247
q374 -26 1163 -96q2 -26 72 -340.5t70 -419.5zM801 745v-223q-27 -6 -72 -6q-37 0 -278 21v-80q0 -52 2 -139.5t2 -90.5l32 -24q23 0 132 -5t135 -5q374 0 374 266q0 297 -104 717q-303 57 -461 57q-51 0 -78.5 -113t-31.5 -375h348z" />
    <glyph glyph-name="Ntilde" unicode="&#xd1;" horiz-adv-x="1439" 
d="M1284 -233q-21 -9 -78 -9q-16 0 -68 3t-69 3q-37 0 -72 -6q-184 368 -522 828q-41 -27 -41 -242q0 -27 11.5 -229.5t11.5 -276.5v-71q-75 -11 -152 -11q-7 0 -26 1t-33 1h-72q31 152 31 602q0 79 -7.5 438t-7.5 439q0 36 3 39q80 -45 167 -45q64 0 89 14
q216 -417 268 -524q159 -291 325 -490q25 31 25 164q0 109 -19.5 319.5t-39 377t-19.5 168.5q20 0 110.5 -18.5t112.5 -18.5q36 0 72 22q-8 -243 -8 -645v-328q0 -131 2 -211q0 -7 -1 -25t-1 -30q0 -108 8 -239zM950 1608q48 -45 117 -95q-59 -116 -172 -116
q-43 0 -148.5 38t-132.5 38q-33 0 -49.5 -21t-38.5 -80q-65 52 -127 82q25 59 79 101t122 42q38 0 136 -36.5t126 -36.5q53 0 88 84z" />
    <glyph glyph-name="Ograve" unicode="&#xd2;" horiz-adv-x="1165" 
d="M1114 651q0 -401 -59 -702q-64 -43 -279 -43q-24 0 -99 2t-87 2l-23 14q-13 0 -81 -2t-87 -2q-178 0 -270 57q12 24 12 62q0 35 -35.5 185t-35.5 184q0 283 46 588.5t105 396.5q27 43 486 43q297 0 340 -19q29 -12 48 -235.5t19 -530.5zM926 580q0 259 -58 628
q-8 0 -169 11.5t-218 11.5q-103 0 -156 -132.5t-53 -377.5q0 -176 32.5 -352.5t80.5 -231.5q99 -12 258 -12q198 0 229 31q54 187 54 424zM770 1475q-194 117 -373 170q43 56 52 139q195 -111 380 -176q-35 -54 -59 -133z" />
    <glyph glyph-name="Oacute" unicode="&#xd3;" horiz-adv-x="1165" 
d="M1114 651q0 -401 -59 -702q-64 -43 -279 -43q-24 0 -99 2t-87 2l-23 14q-13 0 -81 -2t-87 -2q-178 0 -270 57q12 24 12 62q0 35 -35.5 185t-35.5 184q0 283 46 588.5t105 396.5q27 43 486 43q297 0 340 -19q29 -12 48 -235.5t19 -530.5zM926 580q0 259 -58 628
q-8 0 -169 11.5t-218 11.5q-103 0 -156 -132.5t-53 -377.5q0 -176 32.5 -352.5t80.5 -231.5q99 -12 258 -12q198 0 229 31q54 187 54 424zM469 1475q-16 54 -59 133q102 41 170 72t97 45.5t114 58.5q22 -86 51 -139q-127 -41 -186.5 -69t-186.5 -101z" />
    <glyph glyph-name="Ocircumflex" unicode="&#xd4;" horiz-adv-x="1165" 
d="M1114 651q0 -401 -59 -702q-64 -43 -279 -43q-24 0 -99 2t-87 2l-23 14q-13 0 -81 -2t-87 -2q-178 0 -270 57q12 24 12 62q0 35 -35.5 185t-35.5 184q0 283 46 588.5t105 396.5q27 43 486 43q297 0 340 -19q29 -12 48 -235.5t19 -530.5zM926 580q0 259 -58 628
q-8 0 -169 11.5t-218 11.5q-103 0 -156 -132.5t-53 -377.5q0 -176 32.5 -352.5t80.5 -231.5q99 -12 258 -12q198 0 229 31q54 187 54 424zM813 1501q-124 56 -197 135q-70 -56 -215 -137q-21 46 -84 115q158 65 304 170q138 -108 286 -182q-67 -76 -94 -101z" />
    <glyph glyph-name="Otilde" unicode="&#xd5;" horiz-adv-x="1165" 
d="M1114 651q0 -401 -59 -702q-64 -43 -279 -43q-24 0 -99 2t-87 2l-23 14q-13 0 -81 -2t-87 -2q-178 0 -270 57q12 24 12 62q0 35 -35.5 185t-35.5 184q0 283 46 588.5t105 396.5q27 43 486 43q297 0 340 -19q29 -12 48 -235.5t19 -530.5zM926 580q0 259 -58 628
q-8 0 -169 11.5t-218 11.5q-103 0 -156 -132.5t-53 -377.5q0 -176 32.5 -352.5t80.5 -231.5q99 -12 258 -12q198 0 229 31q54 187 54 424zM819 1720q43 -41 117 -94q-60 -117 -172 -117q-43 0 -148.5 38t-132.5 38q-33 0 -49.5 -20.5t-38.5 -79.5q-65 52 -127 82
q25 59 79 101t122 42q38 0 136 -37t126 -37q53 0 88 84z" />
    <glyph glyph-name="Odieresis" unicode="&#xd6;" horiz-adv-x="1165" 
d="M1114 651q0 -401 -59 -702q-64 -43 -279 -43q-24 0 -99 2t-87 2l-23 14q-13 0 -81 -2t-87 -2q-178 0 -270 57q12 24 12 62q0 35 -35.5 185t-35.5 184q0 283 46 588.5t105 396.5q27 43 486 43q297 0 340 -19q29 -12 48 -235.5t19 -530.5zM926 580q0 259 -58 628
q-8 0 -169 11.5t-218 11.5q-103 0 -156 -132.5t-53 -377.5q0 -176 32.5 -352.5t80.5 -231.5q99 -12 258 -12q198 0 229 31q54 187 54 424zM868 1526q-41 -10 -71 -10q-11 0 -45 2.5t-64 3.5q-8 66 -8 123v32q0 17 31.5 24t58.5 7q16 0 29 -2t33.5 -6.5t39.5 -7.5
q9 -83 9 -103q0 -13 -13 -63zM518 1532q-56 -16 -115 -16h-47q-30 0 -30 88q0 8 0.5 16.5t1.5 13.5v6v33q0 27 118 35q18 0 76 -10q8 -73 8 -103q0 -17 -12 -63z" />
    <glyph glyph-name="Oslash" unicode="&#xd8;" horiz-adv-x="1165" 
d="M1167 1479q-8 -15 -39 -68.5t-51 -89.5q37 -211 37 -670q0 -401 -59 -702q-64 -43 -279 -43q-309 0 -475 20l-39 -92q-138 12 -221 12q53 83 100 187q-27 65 -49 190t-22 185q0 146 13 327t49.5 379t88.5 279q27 43 486 43q96 0 206 -4q28 66 39 110q22 -4 215 -63z
M272 721q0 -208 39 -387q56 99 166 286t193 332.5t141 259.5q-285 19 -330 19q-103 0 -156 -132.5t-53 -377.5zM926 580q0 176 -31 430q-305 -522 -489 -877q84 -8 237 -8q198 0 229 31q54 187 54 424z" />
    <glyph glyph-name="Ugrave" unicode="&#xd9;" horiz-adv-x="1378" 
d="M70 1333q2 -2 16 -2h51q21 0 118 3t118 3q130 0 231 -34q-45 -99 -92 -508q-43 -365 -43 -531q0 -185 227 -196q292 -17 308 -17q42 0 76.5 123.5t57.5 398t23 656.5q44 -14 88.5 -21t63.5 -8.5t36 -12t21 -32t4 -68.5q0 -32 -47 -583.5t-51 -618.5q0 -39 -313 -39
q-131 0 -287 13q-41 3 -203 49.5t-194 50.5q-27 27 -27 201q0 77 5.5 202t14 249.5t16.5 237.5t13.5 187.5t5.5 77.5q-65 10 -80 10q-106 0 -176 -61q35 166 35 194q0 26 -16 76zM1075 1343q-194 117 -373 170q43 56 52 140q193 -110 381 -176q-37 -56 -60 -134z" />
    <glyph glyph-name="Uacute" unicode="&#xda;" horiz-adv-x="1378" 
d="M70 1333q2 -2 16 -2h51q21 0 118 3t118 3q130 0 231 -34q-45 -99 -92 -508q-43 -365 -43 -531q0 -185 227 -196q292 -17 308 -17q42 0 76.5 123.5t57.5 398t23 656.5q44 -14 88.5 -21t63.5 -8.5t36 -12t21 -32t4 -68.5q0 -32 -47 -583.5t-51 -618.5q0 -39 -313 -39
q-131 0 -287 13q-41 3 -203 49.5t-194 50.5q-27 27 -27 201q0 77 5.5 202t14 249.5t16.5 237.5t13.5 187.5t5.5 77.5q-65 10 -80 10q-106 0 -176 -61q35 166 35 194q0 26 -16 76zM752 1337q-15 50 -60 133q39 16 72.5 30t57 24t51.5 23t40 18.5t40 19.5t35.5 18t41.5 21.5
t43 22.5q22 -88 51 -140q-126 -41 -185 -69t-187 -101z" />
    <glyph glyph-name="Ucircumflex" unicode="&#xdb;" horiz-adv-x="1378" 
d="M70 1333q2 -2 16 -2h51q21 0 118 3t118 3q130 0 231 -34q-45 -99 -92 -508q-43 -365 -43 -531q0 -185 227 -196q292 -17 308 -17q42 0 76.5 123.5t57.5 398t23 656.5q44 -14 88.5 -21t63.5 -8.5t36 -12t21 -32t4 -68.5q0 -32 -47 -583.5t-51 -618.5q0 -39 -313 -39
q-131 0 -287 13q-41 3 -203 49.5t-194 50.5q-27 27 -27 201q0 77 5.5 202t14 249.5t16.5 237.5t13.5 187.5t5.5 77.5q-65 10 -80 10q-106 0 -176 -61q35 166 35 194q0 26 -16 76zM1108 1419q-124 56 -197 135q-70 -56 -215 -137q-21 46 -84 115q155 64 303 170
q136 -107 287 -182q-67 -76 -94 -101z" />
    <glyph glyph-name="Udieresis" unicode="&#xdc;" horiz-adv-x="1378" 
d="M70 1333q2 -2 16 -2h51q21 0 118 3t118 3q130 0 231 -34q-45 -99 -92 -508q-43 -365 -43 -531q0 -185 227 -196q292 -17 308 -17q42 0 76.5 123.5t57.5 398t23 656.5q44 -14 88.5 -21t63.5 -8.5t36 -12t21 -32t4 -68.5q0 -32 -47 -583.5t-51 -618.5q0 -39 -313 -39
q-131 0 -287 13q-41 3 -203 49.5t-194 50.5q-27 27 -27 201q0 77 5.5 202t14 249.5t16.5 237.5t13.5 187.5t5.5 77.5q-65 10 -80 10q-106 0 -176 -61q35 166 35 194q0 26 -16 76zM1167 1444q-41 -10 -71 -10q-11 0 -45 2.5t-64 3.5q-8 66 -8 123v32q0 17 31.5 24t58.5 7
q16 0 29 -2t33.5 -6.5t39.5 -7.5q9 -83 9 -103q0 -13 -13 -63zM817 1450q-56 -16 -115 -16h-47q-30 0 -30 88q0 8 0.5 16.5t0.5 14.5l1 6v32q0 27 118 35q18 0 76 -10q8 -73 8 -103q0 -17 -12 -63z" />
    <glyph glyph-name="Yacute" unicode="&#xdd;" horiz-adv-x="1230" 
d="M1231 1391q-20 -35 -121 -171t-201.5 -279.5t-132.5 -215.5q-26 -60 -58 -279t-32 -335q0 -73 12 -107q-105 6 -163 6q-115 0 -154 -20q37 74 95.5 337t58.5 359q0 51 -86 215t-188 345t-124 245q49 -14 289 -23q15 -61 71 -176t113 -218t58 -105q24 38 72 113t75 118
t60 99.5t52 98t27 72.5q26 -4 277 -79zM551 1522q-16 54 -59 133q32 13 59.5 24.5t48.5 20.5t43.5 19l36 16t34.5 16t29.5 14t31 15.5t29 15t33 17t35.5 18.5q21 -83 52 -139q-127 -41 -186.5 -69t-186.5 -101z" />
    <glyph glyph-name="Thorn" unicode="&#xde;" horiz-adv-x="1148" 
d="M1137 692q0 -308 -129 -637q-62 -6 -134 -6q-71 0 -246.5 11t-252.5 18q-51 -3 -51 -70q0 -55 32 -96q-58 -6 -129 -6q-2 2 -20 2h-119q-29 0 -43 2q0 42 34 715.5t34 726.5q29 0 88 11t84 11q36 0 56.5 -13t20.5 -52q0 -15 -4 -57t-4 -64q0 -25 4.5 -39t13.5 -24
t35.5 -14t58 -5.5t93.5 -1.5q83 0 198.5 4.5t201 9t96.5 4.5q82 -180 82 -430zM944 668q0 168 -24 206q-164 21 -420 21q-136 0 -160 -43q0 -1 -3.5 -27t-9 -69.5t-10.5 -96.5t-8.5 -119t-3.5 -126q0 -80 14 -105h508q55 0 86 98t31 261z" />
    <glyph glyph-name="germandbls" unicode="&#xdf;" horiz-adv-x="2441" 
d="M1221 481q0 -229 -113.5 -350t-329.5 -121q-246 0 -614 74q5 190 10 214q6 30 27 48q211 -117 510 -117q176 0 288 56q15 64 15 127q0 231 -262 231q-36 0 -190.5 -13.5t-190.5 -13.5q-120 0 -185 35q-63 34 -63 297q0 94 10 165.5t34.5 134.5t66.5 106t105 74.5
t151.5 46t205.5 14.5q185 0 434 -47q-5 -155 -9.5 -190.5t-26.5 -49.5q-148 80 -369 80q-228 0 -391 -82q-12 -70 -12 -129q0 -229 258 -229q36 0 191.5 14t191.5 14q122 0 186 -34q19 -10 45.5 -149t26.5 -206zM2413 635q0 -103 -8.5 -178.5t-30.5 -145t-61 -115.5
t-98.5 -80.5t-144.5 -50.5t-198 -16q-194 0 -483 66q2 27 4.5 57.5t3.5 47t3 36t3 28.5t3 20.5t4 16.5t6 11.5t8 10.5t10 9q157 -92 403 -92q203 0 354 68q19 87 19 143q0 118 -65.5 170.5t-217.5 52.5q-26 0 -157.5 -7t-159.5 -7q-146 0 -217 41q-18 10 -40 129.5
t-22 193.5q0 241 110 364.5t322 123.5q263 0 639 -94q-5 -95 -17.5 -169t-29.5 -91q-227 133 -540 133q-170 0 -256 -45q-19 -84 -19 -142q0 -118 67 -171.5t220 -53.5q27 0 156 7t159 7q63 0 102.5 -3.5t72 -15.5t49.5 -29t28.5 -50.5t15 -74.5t3.5 -105z" />
    <glyph glyph-name="agrave" unicode="&#xe0;" horiz-adv-x="1196" 
d="M1194 66q-24 -12 -82 -28.5t-118.5 -32t-67.5 -17.5q-5 19 -15 74.5t-27.5 126t-45.5 143.5q-299 3 -476 20q-38 -58 -68.5 -181.5t-39.5 -190.5q-104 38 -168 38q-38 0 -51 -8q8 51 137.5 623t144.5 618q46 160 70 232q198 -20 358 -47q0 -211 35.5 -358t132.5 -378
q9 -27 140 -325.5t141 -308.5zM539 1171q-53 -153 -140 -575q30 -43 119 -43q132 0 175.5 22t43.5 84q0 41 -26.5 107.5t-80 185t-91.5 219.5zM754 1499q-194 117 -373 170q42 55 51 139q193 -110 381 -176q-35 -54 -59 -133z" />
    <glyph glyph-name="aacute" unicode="&#xe1;" horiz-adv-x="1196" 
d="M1194 66q-24 -12 -82 -28.5t-118.5 -32t-67.5 -17.5q-5 19 -15 74.5t-27.5 126t-45.5 143.5q-299 3 -476 20q-38 -58 -68.5 -181.5t-39.5 -190.5q-104 38 -168 38q-38 0 -51 -8q8 51 137.5 623t144.5 618q46 160 70 232q198 -20 358 -47q0 -211 35.5 -358t132.5 -378
q9 -27 140 -325.5t141 -308.5zM539 1171q-53 -153 -140 -575q30 -43 119 -43q132 0 175.5 22t43.5 84q0 41 -26.5 107.5t-80 185t-91.5 219.5zM406 1516q-15 50 -60 133q102 41 170 72t97 45.5t114 58.5q22 -86 51 -139q-126 -41 -185 -69t-187 -101z" />
    <glyph glyph-name="acircumflex" unicode="&#xe2;" horiz-adv-x="1196" 
d="M1194 66q-24 -12 -82 -28.5t-118.5 -32t-67.5 -17.5q-5 19 -15 74.5t-27.5 126t-45.5 143.5q-299 3 -476 20q-38 -58 -68.5 -181.5t-39.5 -190.5q-104 38 -168 38q-38 0 -51 -8q8 51 137.5 623t144.5 618q46 160 70 232q198 -20 358 -47q0 -211 35.5 -358t132.5 -378
q9 -27 140 -325.5t141 -308.5zM539 1171q-53 -153 -140 -575q30 -43 119 -43q132 0 175.5 22t43.5 84q0 41 -26.5 107.5t-80 185t-91.5 219.5zM776 1546q-122 55 -196 135q-70 -56 -215 -137q-21 46 -84 115q155 64 303 170q138 -108 286 -182q-67 -76 -94 -101z" />
    <glyph glyph-name="atilde" unicode="&#xe3;" horiz-adv-x="1196" 
d="M1194 66q-24 -12 -82 -28.5t-118.5 -32t-67.5 -17.5q-5 19 -15 74.5t-27.5 126t-45.5 143.5q-299 3 -476 20q-38 -58 -68.5 -181.5t-39.5 -190.5q-104 38 -168 38q-38 0 -51 -8q8 51 137.5 623t144.5 618q46 160 70 232q198 -20 358 -47q0 -211 35.5 -358t132.5 -378
q9 -27 140 -325.5t141 -308.5zM539 1171q-53 -153 -140 -575q30 -43 119 -43q132 0 175.5 22t43.5 84q0 41 -26.5 107.5t-80 185t-91.5 219.5zM791 1741q47 -44 116 -94q-60 -117 -172 -117q-43 0 -148 38t-132 38q-33 0 -49.5 -21t-38.5 -80q-65 52 -127 82
q26 59 79.5 101.5t120.5 42.5q38 0 136 -37t126 -37q54 0 89 84z" />
    <glyph glyph-name="adieresis" unicode="&#xe4;" horiz-adv-x="1196" 
d="M1194 66q-24 -12 -82 -28.5t-118.5 -32t-67.5 -17.5q-5 19 -15 74.5t-27.5 126t-45.5 143.5q-299 3 -476 20q-38 -58 -68.5 -181.5t-39.5 -190.5q-104 38 -168 38q-38 0 -51 -8q8 51 137.5 623t144.5 618q46 160 70 232q198 -20 358 -47q0 -211 35.5 -358t132.5 -378
q9 -27 140 -325.5t141 -308.5zM539 1171q-53 -153 -140 -575q30 -43 119 -43q132 0 175.5 22t43.5 84q0 41 -26.5 107.5t-80 185t-91.5 219.5zM825 1550q-41 -10 -71 -10q-11 0 -45 2.5t-64 3.5q-8 66 -8 123v33q0 17 31.5 24t58.5 7q15 0 28.5 -2.5t34 -7t39.5 -7.5
q9 -82 9 -102q0 -14 -13 -64zM475 1556q-56 -16 -115 -16h-47q-30 0 -30 88q0 8 0.5 16.5t0.5 14.5l1 6v33q0 27 118 35q12 0 76 -11q8 -73 8 -102q0 -18 -12 -64z" />
    <glyph glyph-name="aring" unicode="&#xe5;" horiz-adv-x="1196" 
d="M1194 66q-24 -12 -82 -28.5t-118.5 -32t-67.5 -17.5q-5 19 -15 74.5t-27.5 126t-45.5 143.5q-299 3 -476 20q-38 -58 -68.5 -181.5t-39.5 -190.5q-104 38 -168 38q-38 0 -51 -8q8 51 137.5 623t144.5 618q46 160 70 232q198 -20 358 -47q0 -211 35.5 -358t132.5 -378
q9 -27 140 -325.5t141 -308.5zM539 1171q-53 -153 -140 -575q30 -43 119 -43q132 0 175.5 22t43.5 84q0 41 -26.5 107.5t-80 185t-91.5 219.5zM469 1667q0 -123 115 -123q121 0 121 123q0 127 -115 127q-71 0 -96 -27t-25 -100zM788 1675q0 -91 -51 -142.5t-143 -51.5
q-209 0 -209 172q0 109 47.5 158t153.5 49q202 0 202 -185z" />
    <glyph glyph-name="ae" unicode="&#xe6;" horiz-adv-x="1599" 
d="M1497 891q-8 -163 -20 -225q-23 -5 -127 -16t-212 -28.5t-173 -41.5q0 -216 23.5 -288.5t96.5 -72.5q56 0 219.5 17.5t178.5 17.5v-207q-69 -12 -217 -23.5t-277 -29t-217 -49.5q-6 152 -10 407q-14 -2 -41 -2h-299q-37 0 -60 2q-38 -58 -68.5 -181.5t-39.5 -190.5
q-79 32 -178 32q-7 0 -20.5 -1t-20.5 -1q0 1 37.5 140.5t124 498.5t190.5 834q2 0 56.5 -9t106.5 -15.5t157.5 -12.5t224.5 -6q138 0 264 3.5t201 7t88 3.5q-5 -18 -8 -186q-40 -5 -129 -10t-121 -9q-30 -4 -82 -10q-40 -5 -58 -7.5t-45 -8t-37 -10.5t-25 -15.5t-19.5 -22.5
t-10.5 -32t-7 -43.5t-1 -57.5q0 -142 62 -198q16 0 27 3t33.5 8t134 15t298.5 21zM539 1171q-53 -153 -140 -575q133 -43 357 -43q-9 306 -45 590q-69 18 -172 28z" />
    <glyph glyph-name="ccedilla" unicode="&#xe7;" horiz-adv-x="1155" 
d="M1155 1397q0 -146 -41 -242q-149 88 -387 88q-216 0 -373 -74q-39 -192 -39 -610q0 -73 3.5 -122t15 -84.5t25.5 -54.5t42.5 -29.5t58 -13.5t79.5 -3q164 0 516 31q32 -75 35 -242q-51 0 -150 -10.5t-137 -10.5q-55 0 -129 3v-9q0 -22 13.5 -34.5t34 -17t44.5 -15.5
t44.5 -27.5t34 -55t13.5 -95.5q0 -53 -15.5 -88.5t-47.5 -53t-68.5 -24t-89.5 -6.5q-42 0 -81 11t-74 44t-42 84q29 5 51 18t50 21q15 -82 108 -82q53 0 78 21t25 75q0 32 -19.5 51t-48 29.5t-56.5 24t-47.5 44.5t-19.5 80v9q-75 3 -167 8.5t-147 8.5t-61 3q-51 0 -51 522
q0 362 12 521q27 362 547 362q208 0 461 -55z" />
    <glyph glyph-name="egrave" unicode="&#xe8;" horiz-adv-x="929" 
d="M930 860v-24q0 -112 -21 -201q-9 -11 -163.5 -17.5t-302.5 -21.5t-148 -47q0 -157 12.5 -234t41 -106t87.5 -29q4 0 87 9.5t198.5 20t193.5 13.5q-4 -36 -4 -57v-103q0 -19 4 -47q-34 -25 -561 -36q-72 -3 -252 -66q-2 65 -6 250t-5.5 234.5t-6.5 188t-11 202.5
t-16 179.5t-24 218.5t-33 226q76 -8 184 -8q54 0 293 11t293 11t148 -4q-11 -56 -11 -125v-30q0 -29 2 -31q-42 0 -288 -16q-37 -3 -101 -7q-169 -10 -208.5 -38.5t-39.5 -163.5q0 -143 62 -199q-3 0 41.5 5t115.5 11.5t150 13.5t159 12t130 5zM627 1475q-194 117 -373 170
q42 55 51 139q193 -110 381 -176q-35 -54 -59 -133z" />
    <glyph glyph-name="eacute" unicode="&#xe9;" horiz-adv-x="929" 
d="M930 860v-24q0 -112 -21 -201q-9 -11 -163.5 -17.5t-302.5 -21.5t-148 -47q0 -157 12.5 -234t41 -106t87.5 -29q4 0 87 9.5t198.5 20t193.5 13.5q-4 -36 -4 -57v-103q0 -19 4 -47q-34 -25 -561 -36q-72 -3 -252 -66q-2 65 -6 250t-5.5 234.5t-6.5 188t-11 202.5
t-16 179.5t-24 218.5t-33 226q76 -8 184 -8q54 0 293 11t293 11t148 -4q-11 -56 -11 -125v-30q0 -29 2 -31q-42 0 -288 -16q-37 -3 -101 -7q-169 -10 -208.5 -38.5t-39.5 -163.5q0 -143 62 -199q-3 0 41.5 5t115.5 11.5t150 13.5t159 12t130 5zM313 1475q-16 54 -59 133
q102 41 170 72t97 45.5t114 58.5q22 -86 51 -139q-127 -41 -186.5 -69t-186.5 -101z" />
    <glyph glyph-name="ecircumflex" unicode="&#xea;" horiz-adv-x="929" 
d="M930 860v-24q0 -112 -21 -201q-9 -11 -163.5 -17.5t-302.5 -21.5t-148 -47q0 -157 12.5 -234t41 -106t87.5 -29q4 0 87 9.5t198.5 20t193.5 13.5q-4 -36 -4 -57v-103q0 -19 4 -47q-34 -25 -561 -36q-72 -3 -252 -66q-2 65 -6 250t-5.5 234.5t-6.5 188t-11 202.5
t-16 179.5t-24 218.5t-33 226q76 -8 184 -8q54 0 293 11t293 11t148 -4q-11 -56 -11 -125v-30q0 -29 2 -31q-42 0 -288 -16q-37 -3 -101 -7q-169 -10 -208.5 -38.5t-39.5 -163.5q0 -143 62 -199q-3 0 41.5 5t115.5 11.5t150 13.5t159 12t130 5zM670 1495q-124 56 -197 135
q-70 -56 -215 -137q-21 46 -84 115q155 64 303 170q140 -109 287 -183q-62 -70 -94 -100z" />
    <glyph glyph-name="edieresis" unicode="&#xeb;" horiz-adv-x="929" 
d="M930 860v-24q0 -112 -21 -201q-9 -11 -163.5 -17.5t-302.5 -21.5t-148 -47q0 -157 12.5 -234t41 -106t87.5 -29q4 0 87 9.5t198.5 20t193.5 13.5q-4 -36 -4 -57v-103q0 -19 4 -47q-34 -25 -561 -36q-72 -3 -252 -66q-2 65 -6 250t-5.5 234.5t-6.5 188t-11 202.5
t-16 179.5t-24 218.5t-33 226q76 -8 184 -8q54 0 293 11t293 11t148 -4q-11 -56 -11 -125v-30q0 -29 2 -31q-42 0 -288 -16q-37 -3 -101 -7q-169 -10 -208.5 -38.5t-39.5 -163.5q0 -143 62 -199q-3 0 41.5 5t115.5 11.5t150 13.5t159 12t130 5zM733 1489q-41 -10 -71 -10
q-11 0 -45 2.5t-64 3.5q-8 66 -8 123v32q0 17 31.5 24t58.5 7q16 0 29 -2t33.5 -6.5t39.5 -7.5q8 -73 8 -103q0 -16 -12 -63zM383 1495q-56 -16 -115 -16h-47q-31 0 -31 88q0 8 1 16.5t1 14.5l1 6v32q0 27 118 35q18 0 76 -10q8 -73 8 -102q0 -17 -12 -64z" />
    <glyph glyph-name="igrave" unicode="&#xec;" horiz-adv-x="360" 
d="M326 31q-105 10 -193 10h-41q-17 45 -38 510.5t-21 660.5q0 44 11.5 76.5t27 49.5t42 28t44 14t46 5.5t36.5 3.5q-7 -107 -7 -246q0 -198 9.5 -383.5t21.5 -306.5t27 -223.5t23 -142.5t12 -56zM342 1475q-194 117 -373 170q42 55 51 139q193 -110 381 -176
q-35 -54 -59 -133z" />
    <glyph glyph-name="iacute" unicode="&#xed;" horiz-adv-x="360" 
d="M326 31q-105 10 -193 10h-41q-17 45 -38 510.5t-21 660.5q0 44 11.5 76.5t27 49.5t42 28t44 14t46 5.5t36.5 3.5q-7 -107 -7 -246q0 -198 9.5 -383.5t21.5 -306.5t27 -223.5t23 -142.5t12 -56zM29 1475q-15 50 -60 133q102 41 170 72t97 45.5t114 58.5q22 -86 51 -139
q-126 -41 -185 -69t-187 -101z" />
    <glyph glyph-name="icircumflex" unicode="&#xee;" horiz-adv-x="360" 
d="M326 31q-105 10 -193 10h-41q-17 45 -38 510.5t-21 660.5q0 44 11.5 76.5t27 49.5t42 28t44 14t46 5.5t36.5 3.5q-7 -107 -7 -246q0 -198 9.5 -383.5t21.5 -306.5t27 -223.5t23 -142.5t12 -56zM385 1495q-124 56 -197 135q-70 -56 -215 -137q-21 46 -84 115
q158 65 304 170q142 -111 286 -183q-62 -70 -94 -100z" />
    <glyph glyph-name="idieresis" unicode="&#xef;" horiz-adv-x="360" 
d="M326 31q-105 10 -193 10h-41q-17 45 -38 510.5t-21 660.5q0 44 11.5 76.5t27 49.5t42 28t44 14t46 5.5t36.5 3.5q-7 -107 -7 -246q0 -198 9.5 -383.5t21.5 -306.5t27 -223.5t23 -142.5t12 -56zM449 1489q-41 -10 -72 -10q-11 0 -45 2.5t-64 3.5q-8 66 -8 123v32
q0 17 31.5 24t58.5 7q16 0 29 -2t34 -6.5t40 -7.5q8 -73 8 -103q0 -16 -12 -63zM98 1495q-56 -16 -114 -16h-47q-31 0 -31 88q0 8 0.5 16.5t1.5 14.5v6v32q0 27 119 35q17 0 75 -10q9 -83 9 -102q0 -14 -13 -64z" />
    <glyph glyph-name="eth" unicode="&#xf0;" horiz-adv-x="1372" 
d="M1350 610q-2 -82 -30 -260.5t-71 -290.5q-8 -20 -155.5 -39.5t-251.5 -19.5h-523q-79 0 -79 84q0 19 2.5 39t6.5 48t9 127t8 253q-2 2 -20 2h-17q-107 0 -151 -29v51q0 117 6 197q0 1 26.5 -3t74 -10t85.5 -9q9 221 9 364v64q-94 49 -164 49q-49 0 -70 -8v247
q374 -26 1163 -96q2 -26 72 -340.5t70 -419.5zM801 745v-223q-27 -6 -72 -6q-37 0 -278 21v-80q0 -52 2 -139.5t2 -90.5l32 -24q23 0 132 -5t135 -5q374 0 374 266q0 297 -104 717q-303 57 -461 57q-51 0 -78.5 -113t-31.5 -375h348z" />
    <glyph glyph-name="ntilde" unicode="&#xf1;" horiz-adv-x="1368" 
d="M1305 -43q0 -68 -197 -80q-4 5 -129.5 156.5t-208.5 259.5q-66 91 -141.5 207.5t-117 180.5t-100.5 128t-122 98q-27 -53 -27 -157v-101q0 -32 4 -86q4 -63 35.5 -370t34.5 -343q-86 11 -141 11q-57 0 -119 -6q0 126 -23 774t-30 727q109 20 217 20h26
q84 -177 276.5 -440t440.5 -496l43 13q0 170 -48 533t-48 423q122 16 209 16h45q11 -29 19 -76t15.5 -146t12.5 -185t15.5 -282.5t19.5 -348.5q15 -264 39 -430zM788 1688q48 -45 117 -95q-59 -116 -172 -116q-43 0 -148 37.5t-132 37.5q-33 0 -49.5 -20.5t-38.5 -79.5
q-65 52 -127 82q25 59 78.5 101t121.5 42q38 0 136 -36.5t126 -36.5q53 0 88 84z" />
    <glyph glyph-name="ograve" unicode="&#xf2;" horiz-adv-x="1347" 
d="M1329 940q0 -295 -47 -606q0 -4 -18 -61t-36 -131.5t-18 -121.5q0 -30 2 -32q-155 -70 -401 -70q-349 0 -614 137q-68 467 -68 670q0 445 231 791q114 4 172 4q232 0 494 -25q29 -3 129 -29.5t119 -29.5q55 -201 55 -496zM1081 999q0 219 -20 269q-314 55 -408 55
q-73 0 -155 -16q-144 -372 -144 -705q0 -279 135 -387q303 -29 318 -29q125 0 168 37q39 32 72.5 281.5t33.5 494.5zM973 1526q-194 117 -373 170q42 55 51 139q193 -110 381 -176q-35 -54 -59 -133z" />
    <glyph glyph-name="oacute" unicode="&#xf3;" horiz-adv-x="1347" 
d="M1329 940q0 -295 -47 -606q0 -4 -18 -61t-36 -131.5t-18 -121.5q0 -30 2 -32q-155 -70 -401 -70q-349 0 -614 137q-68 467 -68 670q0 445 231 791q114 4 172 4q232 0 494 -25q29 -3 129 -29.5t119 -29.5q55 -201 55 -496zM1081 999q0 219 -20 269q-314 55 -408 55
q-73 0 -155 -16q-144 -372 -144 -705q0 -279 135 -387q303 -29 318 -29q125 0 168 37q39 32 72.5 281.5t33.5 494.5zM643 1516q-16 54 -59 133q102 41 170 72t97 45.5t114 58.5q22 -86 51 -139q-127 -41 -186.5 -69t-186.5 -101z" />
    <glyph glyph-name="ocircumflex" unicode="&#xf4;" horiz-adv-x="1347" 
d="M1329 940q0 -295 -47 -606q0 -4 -18 -61t-36 -131.5t-18 -121.5q0 -30 2 -32q-155 -70 -401 -70q-349 0 -614 137q-68 467 -68 670q0 445 231 791q114 4 172 4q232 0 494 -25q29 -3 129 -29.5t119 -29.5q55 -201 55 -496zM1081 999q0 219 -20 269q-314 55 -408 55
q-73 0 -155 -16q-144 -372 -144 -705q0 -279 135 -387q303 -29 318 -29q125 0 168 37q39 32 72.5 281.5t33.5 494.5zM1012 1573q-124 56 -197 135q-70 -56 -215 -137q-21 46 -84 115q159 65 303 169q136 -107 287 -182q-62 -70 -94 -100z" />
    <glyph glyph-name="otilde" unicode="&#xf5;" horiz-adv-x="1347" 
d="M1329 940q0 -295 -47 -606q0 -4 -18 -61t-36 -131.5t-18 -121.5q0 -30 2 -32q-155 -70 -401 -70q-349 0 -614 137q-68 467 -68 670q0 445 231 791q114 4 172 4q232 0 494 -25q29 -3 129 -29.5t119 -29.5q55 -201 55 -496zM1081 999q0 219 -20 269q-314 55 -408 55
q-73 0 -155 -16q-144 -372 -144 -705q0 -279 135 -387q303 -29 318 -29q125 0 168 37q39 32 72.5 281.5t33.5 494.5zM1028 1819q48 -45 117 -95q-59 -116 -172 -116q-43 0 -148.5 37.5t-132.5 37.5q-33 0 -49.5 -20.5t-38.5 -79.5q-65 52 -127 82q25 59 79 101t122 42
q38 0 136 -36.5t126 -36.5q53 0 88 84z" />
    <glyph glyph-name="odieresis" unicode="&#xf6;" horiz-adv-x="1347" 
d="M1329 940q0 -295 -47 -606q0 -4 -18 -61t-36 -131.5t-18 -121.5q0 -30 2 -32q-155 -70 -401 -70q-349 0 -614 137q-68 467 -68 670q0 445 231 791q114 4 172 4q232 0 494 -25q29 -3 129 -29.5t119 -29.5q55 -201 55 -496zM1081 999q0 219 -20 269q-314 55 -408 55
q-73 0 -155 -16q-144 -372 -144 -705q0 -279 135 -387q303 -29 318 -29q125 0 168 37q39 32 72.5 281.5t33.5 494.5zM1092 1591q-41 -10 -72 -10q-11 0 -45 2.5t-64 3.5q-8 66 -8 123v33q0 17 31.5 24t58.5 7q15 0 29 -2.5t34.5 -7t39.5 -7.5q8 -73 8 -102q0 -17 -12 -64z
M741 1597q-56 -16 -114 -16h-47q-31 0 -31 88q0 8 0.5 16.5t0.5 14.5l1 6v33q0 27 119 35q11 0 75 -11q9 -83 9 -102q0 -14 -13 -64z" />
    <glyph glyph-name="oslash" unicode="&#xf8;" horiz-adv-x="1165" 
d="M1167 1479q-8 -15 -39 -68.5t-51 -89.5q37 -211 37 -670q0 -401 -59 -702q-64 -43 -279 -43q-309 0 -475 20l-39 -92q-138 12 -221 12q53 83 100 187q-27 65 -49 190t-22 185q0 146 13 327t49.5 379t88.5 279q27 43 486 43q96 0 206 -4q28 66 39 110q22 -4 215 -63z
M272 721q0 -208 39 -387q56 99 166 286t193 332.5t141 259.5q-285 19 -330 19q-103 0 -156 -132.5t-53 -377.5zM926 580q0 176 -31 430q-305 -522 -489 -877q84 -8 237 -8q198 0 229 31q54 187 54 424z" />
    <glyph glyph-name="ugrave" unicode="&#xf9;" horiz-adv-x="1179" 
d="M1133 -72q-128 -32 -357 -32q-317 0 -477 32q-20 4 -53 10q-78 13 -101 29q-36 26 -46 112q-7 68 -7 324q0 72 4 357.5t4 343.5q0 165 -10 233q80 17 125 17q66 0 172 -29q-20 -59 -51 -410.5t-31 -537.5q0 -48 0.5 -74.5t5.5 -59.5t9 -48t20 -35.5t30 -27.5t47 -17.5
t62 -13t83.5 -6t104.5 -3.5h132q166 0 166 635q0 43 -8.5 266.5t-8.5 286.5q23 -1 54.5 -2.5t46.5 -2t36 -2.5t30 -4.5t21 -8.5t16 -13.5t9.5 -20.5t6.5 -29t1 -38q0 -31 -15 -553t-21 -678zM831 1376q-195 117 -372 170q42 54 51 140q197 -113 381 -177q-37 -57 -60 -133z
" />
    <glyph glyph-name="uacute" unicode="&#xfa;" horiz-adv-x="1179" 
d="M1133 -72q-128 -32 -357 -32q-317 0 -477 32q-20 4 -53 10q-78 13 -101 29q-36 26 -46 112q-7 68 -7 324q0 72 4 357.5t4 343.5q0 165 -10 233q80 17 125 17q66 0 172 -29q-20 -59 -51 -410.5t-31 -537.5q0 -48 0.5 -74.5t5.5 -59.5t9 -48t20 -35.5t30 -27.5t47 -17.5
t62 -13t83.5 -6t104.5 -3.5h132q166 0 166 635q0 43 -8.5 266.5t-8.5 286.5q23 -1 54.5 -2.5t46.5 -2t36 -2.5t30 -4.5t21 -8.5t16 -13.5t9.5 -20.5t6.5 -29t1 -38q0 -31 -15 -553t-21 -678zM494 1366q-15 50 -60 133q102 41 170 72t97 45.5t114 58.5q22 -86 51 -139
q-126 -41 -185 -69t-187 -101z" />
    <glyph glyph-name="ucircumflex" unicode="&#xfb;" horiz-adv-x="1179" 
d="M1133 -72q-128 -32 -357 -32q-317 0 -477 32q-20 4 -53 10q-78 13 -101 29q-36 26 -46 112q-7 68 -7 324q0 72 4 357.5t4 343.5q0 165 -10 233q80 17 125 17q66 0 172 -29q-20 -59 -51 -410.5t-31 -537.5q0 -48 0.5 -74.5t5.5 -59.5t9 -48t20 -35.5t30 -27.5t47 -17.5
t62 -13t83.5 -6t104.5 -3.5h132q166 0 166 635q0 43 -8.5 266.5t-8.5 286.5q23 -1 54.5 -2.5t46.5 -2t36 -2.5t30 -4.5t21 -8.5t16 -13.5t9.5 -20.5t6.5 -29t1 -38q0 -31 -15 -553t-21 -678zM877 1397q-124 56 -197 135q-70 -56 -215 -137q-20 44 -84 114q155 64 303 170
q136 -107 287 -182q-62 -70 -94 -100z" />
    <glyph glyph-name="udieresis" unicode="&#xfc;" horiz-adv-x="1179" 
d="M1133 -72q-128 -32 -357 -32q-317 0 -477 32q-20 4 -53 10q-78 13 -101 29q-36 26 -46 112q-7 68 -7 324q0 72 4 357.5t4 343.5q0 165 -10 233q80 17 125 17q66 0 172 -29q-20 -59 -51 -410.5t-31 -537.5q0 -48 0.5 -74.5t5.5 -59.5t9 -48t20 -35.5t30 -27.5t47 -17.5
t62 -13t83.5 -6t104.5 -3.5h132q166 0 166 635q0 43 -8.5 266.5t-8.5 286.5q23 -1 54.5 -2.5t46.5 -2t36 -2.5t30 -4.5t21 -8.5t16 -13.5t9.5 -20.5t6.5 -29t1 -38q0 -31 -15 -553t-21 -678zM920 1432q-45 -11 -72 -11q-11 0 -45 2.5t-64 3.5q-8 66 -8 123v33q0 17 31.5 24
t58.5 7q15 0 29 -2.5t34.5 -7t39.5 -7.5q8 -73 8 -102q0 -17 -12 -63zM569 1438q-60 -17 -114 -17h-47q-31 0 -31 88q0 8 0.5 16.5t0.5 14.5l1 6v33q0 27 119 35q17 0 75 -10q9 -82 9 -103q0 -13 -13 -63z" />
    <glyph glyph-name="yacute" unicode="&#xfd;" horiz-adv-x="1099" 
d="M1100 1315q-3 -5 -60 -93.5t-125.5 -196t-162.5 -261t-177 -295t-162 -290t-124 -253.5q-200 23 -275 23h-14q188 345 424 706q-5 10 -91.5 181t-169.5 347t-112 267q72 -14 287 -27q15 -77 72 -212.5t107 -235.5t50 -94q196 317 256 518q26 -4 277 -84zM1100 1315
q2 2 2 4q0 -2 -2 -4zM393 1475q-16 54 -59 133q102 41 170 72t97 45.5t114 58.5q22 -86 51 -139q-127 -41 -186.5 -69t-186.5 -101z" />
    <glyph glyph-name="thorn" unicode="&#xfe;" horiz-adv-x="1148" 
d="M1137 692q0 -308 -129 -637q-62 -6 -134 -6q-71 0 -246.5 11t-252.5 18q-51 -3 -51 -70q0 -55 32 -96q-58 -6 -129 -6q-2 2 -20 2h-119q-29 0 -43 2q0 42 34 715.5t34 726.5q29 0 88 11t84 11q36 0 56.5 -13t20.5 -52q0 -15 -4 -57t-4 -64q0 -25 4.5 -39t13.5 -24
t35.5 -14t58 -5.5t93.5 -1.5q83 0 198.5 4.5t201 9t96.5 4.5q82 -180 82 -430zM944 668q0 168 -24 206q-164 21 -420 21q-136 0 -160 -43q0 -1 -3.5 -27t-9 -69.5t-10.5 -96.5t-8.5 -119t-3.5 -126q0 -80 14 -105h508q55 0 86 98t31 261z" />
    <glyph glyph-name="ydieresis" unicode="&#xff;" horiz-adv-x="1099" 
d="M1100 1315q-3 -5 -60 -93.5t-125.5 -196t-162.5 -261t-177 -295t-162 -290t-124 -253.5q-200 23 -275 23h-14q188 345 424 706q-5 10 -91.5 181t-169.5 347t-112 267q72 -14 287 -27q15 -77 72 -212.5t107 -235.5t50 -94q196 317 256 518q26 -4 277 -84zM1100 1315
q2 2 2 4q0 -2 -2 -4zM864 1499q-41 -10 -71 -10q-11 0 -45 2.5t-64 3.5q-8 66 -8 123v33q0 12 20 19.5t37.5 9t32.5 1.5q16 0 29 -2t33.5 -6.5t39.5 -7.5q9 -83 9 -102q0 -14 -13 -64zM514 1505q-56 -16 -115 -16h-47q-30 0 -30 88q0 8 0.5 16.5t1.5 14.5v6v33q0 29 118 34
q18 0 76 -10q8 -73 8 -102q0 -17 -12 -64z" />
    <glyph glyph-name="dotlessi" unicode="&#x131;" horiz-adv-x="360" 
d="M326 31q-105 10 -193 10h-41q-17 45 -38 510.5t-21 660.5q0 44 11.5 76.5t27 49.5t42 28t44 14t46 5.5t36.5 3.5q-7 -107 -7 -246q0 -198 9.5 -383.5t21.5 -306.5t27 -223.5t23 -142.5t12 -56z" />
    <glyph glyph-name="Lslash" unicode="&#x141;" horiz-adv-x="1110" 
d="M958 905q-169 -76 -415 -225q-17 -152 -17 -313q0 -149 25 -152q39 -3 102.5 -8t198 -17t258.5 -22q-17 -103 -20 -207q-13 -8 -64 -8q-59 0 -269.5 25t-226.5 26l-20 2q-75 0 -238 -41q0 75 43 572q-178 -110 -194 -121q-33 29 -77 65t-48 39l-14 10q241 122 348 181
q20 223 20 295q0 317 -166 317q-65 0 -168 -53l17 213q146 -3 665 -43q-40 -28 -70 -164t-67 -428q170 106 287 203q30 -34 110 -146z" />
    <glyph glyph-name="lslash" unicode="&#x142;" horiz-adv-x="913" 
d="M831 989q-217 -98 -534 -301q9 -436 55 -436q230 0 561 12q-1 -10 -2.5 -28.5t-2.5 -33.5t-1 -30q0 -56 6 -115q-26 -20 -219 -20q-30 0 -161.5 3t-159.5 3q-78 0 -273 -68q-4 55 -7 154t-5 228.5t-4 199.5l-90 -57q-33 29 -77 65t-48 39l-14 10q147 72 227 115v47
q0 87 -30 339t-54 360q77 -5 92 -5q34 0 149 8.5t132 8.5q-71 -62 -74 -639q265 156 424 287q30 -34 110 -146z" />
    <glyph glyph-name="OE" unicode="&#x152;" horiz-adv-x="1873" 
d="M1788 860v-24q0 -112 -21 -201q-9 -11 -163.5 -17.5t-302.5 -21.5t-148 -47q0 -157 12.5 -234t41 -106t87.5 -29q4 0 87 9.5t199 20t194 13.5q-9 -27 -9 -90q0 -14 9 -117q-20 -16 -79 -16t-207.5 -7t-328.5 -38q-140 -25 -252 -34t-282 -9q-198 0 -317 14.5t-179 50.5
q-51 408 -51 678q0 231 38 432t105 306q27 43 486 43q513 -19 614 -19q66 0 176.5 5t130.5 5q54 0 148 -4q-6 -22 -9 -186q-42 0 -288 -16q-37 -3 -101 -7q-169 -10 -208.5 -38.5t-39.5 -163.5q0 -143 62 -199q-3 0 41.5 5t115.5 11.5t150 13.5t159 12t130 5zM926 580
q0 259 -58 628q-8 0 -169 11.5t-218 11.5q-103 0 -156 -132.5t-53 -377.5q0 -176 32.5 -352.5t80.5 -231.5q99 -12 258 -12q198 0 229 31q54 193 54 424z" />
    <glyph glyph-name="oe" unicode="&#x153;" horiz-adv-x="1873" 
d="M1788 860v-24q0 -112 -21 -201q-9 -11 -163.5 -17.5t-302.5 -21.5t-148 -47q0 -157 12.5 -234t41 -106t87.5 -29q4 0 87 9.5t199 20t194 13.5q-9 -27 -9 -90q0 -14 9 -117q-20 -16 -79 -16t-207.5 -7t-328.5 -38q-140 -25 -252 -34t-282 -9q-198 0 -317 14.5t-179 50.5
q-51 408 -51 678q0 231 38 432t105 306q27 43 486 43q513 -19 614 -19q66 0 176.5 5t130.5 5q54 0 148 -4q-6 -22 -9 -186q-42 0 -288 -16q-37 -3 -101 -7q-169 -10 -208.5 -38.5t-39.5 -163.5q0 -143 62 -199q-3 0 41.5 5t115.5 11.5t150 13.5t159 12t130 5zM926 580
q0 259 -58 628q-8 0 -169 11.5t-218 11.5q-103 0 -156 -132.5t-53 -377.5q0 -176 32.5 -352.5t80.5 -231.5q99 -12 258 -12q198 0 229 31q54 193 54 424z" />
    <glyph glyph-name="Scaron" unicode="&#x160;" horiz-adv-x="1220" 
d="M1221 481q0 -229 -113.5 -350t-329.5 -121q-246 0 -614 74q5 190 10 214q6 30 27 48q211 -117 510 -117q176 0 288 56q15 64 15 127q0 231 -262 231q-36 0 -190.5 -13.5t-190.5 -13.5q-120 0 -185 35q-63 34 -63 297q0 94 10 165.5t34.5 134.5t66.5 106t105 74.5
t151.5 46t205.5 14.5q185 0 434 -47q-5 -155 -9.5 -190.5t-26.5 -49.5q-148 80 -369 80q-228 0 -391 -82q-12 -70 -12 -129q0 -229 258 -229q36 0 191.5 14t191.5 14q122 0 186 -34q19 -10 45.5 -149t26.5 -206zM469 1808q128 -75 197 -161q73 68 215 163q19 -59 84 -127
q-155 -64 -303 -170q-140 109 -287 183q18 20 51.5 60.5t42.5 51.5z" />
    <glyph glyph-name="scaron" unicode="&#x161;" horiz-adv-x="1200" 
d="M1192 635q0 -103 -8.5 -178.5t-30.5 -145t-61 -115.5t-98.5 -80.5t-144.5 -50.5t-198 -16q-194 0 -483 66q2 27 4.5 57.5t3.5 47t3 36t3 28.5t3 20.5t4 16.5t6 11.5t8 10.5t10 9q157 -92 403 -92q204 0 355 68q18 82 18 143q0 118 -65 170.5t-217 52.5q-26 0 -158 -7
t-160 -7q-146 0 -217 41q-18 10 -39.5 129.5t-21.5 193.5q0 241 110 364.5t322 123.5q263 0 639 -94q-5 -95 -17.5 -169t-29.5 -91q-227 133 -541 133q-170 0 -256 -45q-19 -84 -19 -142q0 -118 67 -171.5t220 -53.5q27 0 156.5 7t159.5 7q63 0 102.5 -3.5t72 -15.5
t49.5 -29t28.5 -50.5t14.5 -74.5t3 -105zM442 1827q127 -74 197 -162q77 72 215 164q19 -59 84 -127q-155 -64 -303 -170q-136 107 -287 182q17 20 49.5 59.5t44.5 53.5z" />
    <glyph glyph-name="Ydieresis" unicode="&#x178;" horiz-adv-x="1230" 
d="M1231 1391q-20 -35 -121 -171t-201.5 -279.5t-132.5 -215.5q-26 -60 -58 -279t-32 -335q0 -73 12 -107q-105 6 -163 6q-115 0 -154 -20q37 74 95.5 337t58.5 359q0 51 -86 215t-188 345t-124 245q49 -14 289 -23q15 -61 71 -176t113 -218t58 -105q24 38 72 113t75 118
t60 99.5t52 98t27 72.5q26 -4 277 -79zM963 1507q-41 -10 -72 -10q-11 0 -45 2.5t-64 3.5q-8 66 -8 123v33q0 17 31.5 24t58.5 7q15 0 29 -2.5t34.5 -7t39.5 -7.5q8 -73 8 -102q0 -17 -12 -64zM612 1513q-56 -16 -114 -16h-47q-31 0 -31 88q0 8 0.5 16.5t1.5 14.5v6v33
q0 27 119 35q11 0 75 -11q9 -83 9 -102q0 -14 -13 -64z" />
    <glyph glyph-name="Zcaron" unicode="&#x17d;" horiz-adv-x="1120" 
d="M1120 1397q-93 -190 -358 -615q-243 -393 -320 -635q91 18 214.5 23.5t340.5 5.5l-45 -295q-286 35 -581 35q-214 0 -359 -22q14 33 155.5 284.5t285 531.5t186.5 425h-23q-38 0 -201.5 12t-199.5 12q-111 0 -203 -24q35 107 35 151q0 71 -33 133q213 -65 570 -65
q318 0 536 43zM414 1737q125 -73 196 -162q77 72 215 164q19 -59 84 -127q-155 -64 -303 -170q-136 107 -287 182q18 20 52.5 61.5t42.5 51.5z" />
    <glyph glyph-name="zcaron" unicode="&#x17e;" horiz-adv-x="1171" 
d="M1171 1413q-14 -35 -103.5 -197.5t-188 -340.5t-195 -379.5t-127.5 -313.5q21 6 46 11.5t56.5 9.5t57.5 7.5t66 6t64 4.5t69.5 3.5t65 2.5t68 2.5t62.5 1.5l-35 -297q-211 19 -426 19q-345 0 -514 -39q13 37 139.5 279.5t256 518.5t165.5 423q-2 -2 -16 -2h-49
q-30 0 -159.5 6t-156.5 6q-153 0 -243 -33q28 98 28 143q0 74 -36 142q162 -49 452 -49q366 0 653 65zM424 1698q127 -74 197 -162q77 72 215 164q19 -59 84 -127q-158 -65 -304 -170q-138 108 -286 182q18 20 50 59.5t44 53.5z" />
    <glyph glyph-name="florin" unicode="&#x192;" horiz-adv-x="1083" 
d="M983 1430q-8 -41 -8 -103q0 -47 6 -94q-67 -3 -303 -28t-268 -25q-58 -58 -58 -170q0 -171 72 -240l297 41q186 25 297 25q-17 -80 -17 -140l5 -98q-10 -20 -172 -29q-256 -16 -266 -17q-143 -13 -169 -56q-8 -13 -8 -29q19 -166 43.5 -246.5t53 -101.5t83.5 -21
q15 0 111.5 14.5t210.5 32.5t135 21q0 -140 10 -219q-391 -21 -809 -129q-23 183 -79.5 787.5t-61.5 789.5q71 -11 164 -11q164 0 391.5 16.5t339.5 29.5z" />
    <glyph glyph-name="circumflex" unicode="&#x2c6;" horiz-adv-x="1056" 
d="M778 1495q-122 55 -196 135q-70 -56 -215 -137q-21 46 -84 115q155 64 303 170q142 -111 286 -183q-62 -70 -94 -100z" />
    <glyph glyph-name="caron" unicode="&#x2c7;" horiz-adv-x="1056" 
d="M377 1774q125 -73 196 -162q77 72 215 164q19 -59 84 -127q-155 -64 -303 -170q-138 108 -286 182q18 20 50 59.5t44 53.5z" />
    <glyph glyph-name="ring" unicode="&#x2da;" horiz-adv-x="1007" 
d="M354 1620q0 -164 156 -164q162 0 162 164q0 172 -154 172q-97 0 -130.5 -37t-33.5 -135zM786 1632q0 -123 -70 -192.5t-194 -69.5q-278 0 -278 232q0 147 63.5 212.5t204.5 65.5q274 0 274 -248z" />
    <glyph glyph-name="tilde" unicode="&#x2dc;" horiz-adv-x="1056" 
d="M756 1720q47 -44 116 -94q-60 -117 -172 -117q-43 0 -148 38t-132 38q-33 0 -49.5 -20.5t-38.5 -79.5q-65 52 -127 82q25 59 79 101t122 42q38 0 136 -37t126 -37q53 0 88 84z" />
    <glyph glyph-name="endash" unicode="&#x2013;" horiz-adv-x="1021" 
d="M952 567q-180 17 -518 17q-195 0 -342 -11q2 18 2 58q0 55 -12 110q41 0 316 -5t417 -5h105q28 0 30 2q-4 -78 -4 -96q0 -49 6 -70z" />
    <glyph glyph-name="emdash" unicode="&#x2014;" horiz-adv-x="1472" 
d="M1391 567q-180 17 -803 17q-358 0 -508 -11q2 18 2 58q0 55 -12 110q27 0 485 -5t666 -5h135q31 0 33 2q-1 -14 -2 -34.5t-2 -35t-1 -26.5q0 -45 7 -70z" />
    <glyph glyph-name="quoteleft" unicode="&#x2018;" horiz-adv-x="415" 
d="M303 1577q23 -297 74 -481q-40 12 -86 12l-98 -31q0 74 -53.5 229t-94.5 222q32 13 138.5 29t119.5 20z" />
    <glyph glyph-name="quoteright" unicode="&#x2019;" horiz-adv-x="415" 
d="M399 1528q-98 -272 -127 -459q-41 30 -77 39l-105 4q19 46 34 168t15 201v47q0 15 -4 43q36 0 140 -21.5t124 -21.5z" />
    <glyph glyph-name="quotesinglbase" unicode="&#x201a;" horiz-adv-x="415" 
d="M399 215q-98 -272 -127 -459q-41 30 -77 39l-105 4q19 46 34 168t15 201v47q0 15 -4 43q36 0 140 -21.5t124 -21.5z" />
    <glyph glyph-name="quotedblleft" unicode="&#x201c;" horiz-adv-x="661" 
d="M559 1597q3 -272 49 -481q-12 4 -28 7t-29.5 4.5t-15.5 2.5q-8 0 -109 -34q0 62 -33 179t-76 224q3 -226 45 -418q-12 4 -28 7.5t-29.5 5.5t-15.5 2q-5 0 -109 -35q0 82 -42.5 223t-82.5 229q68 28 269.5 51t234.5 33z" />
    <glyph glyph-name="quotedblright" unicode="&#x201d;" horiz-adv-x="661" 
d="M639 1528q-87 -294 -109 -467q-46 31 -77 33h-5q-4 0 -12.5 -0.5t-20 -1t-29 -0.5h-36.5q12 37 21.5 121.5t9.5 160.5v62q0 15 -4 61q-71 -222 -92 -403q-52 30 -88 30h-62q-27 0 -31 -2q12 42 23.5 147.5t11.5 178.5q0 79 -8 131q2 2 23 2h24q61 0 236 -27.5t198 -27.5
q4 0 13.5 1t13.5 1z" />
    <glyph glyph-name="quotedblbase" unicode="&#x201e;" horiz-adv-x="661" 
d="M639 283q-87 -294 -109 -467q-44 29 -77 32h-5q-4 0 -12.5 -0.5t-20 -1t-29 -0.5h-36.5q12 37 21.5 122t9.5 161v61q0 16 -4 62q-71 -222 -92 -404q-53 31 -88 31h-62q-27 0 -31 -2q12 42 23.5 147.5t11.5 178.5q0 79 -8 131q2 2 23 2h24q61 0 236 -27.5t198 -27.5
q4 0 13.5 1t13.5 1z" />
    <glyph glyph-name="bullet" unicode="&#x2022;" horiz-adv-x="1187" 
d="M588 903q293 0 293 -311q0 -291 -303 -291q-295 0 -295 297q2 81 14.5 130.5t46.5 87.5t91.5 57.5t152.5 29.5z" />
    <glyph glyph-name="ellipsis" unicode="&#x2026;" horiz-adv-x="2109" 
d="M424 -37q0 -47 -52.5 -83t-103.5 -36q-114 0 -114 156q0 109 104 109q63 0 114.5 -43.5t51.5 -102.5zM2028 20q0 -47 -52.5 -82.5t-103.5 -35.5q-115 0 -115 155q0 109 105 109q63 0 114.5 -43.5t51.5 -102.5zM1202 -37q0 -47 -52 -83t-103 -36q-115 0 -115 156
q0 109 104 109q63 0 114.5 -43.5t51.5 -102.5z" />
    <glyph glyph-name="guilsinglleft" unicode="&#x2039;" horiz-adv-x="649" 
d="M74 623q127 60 197 111.5t200 176.5q2 -12 5 -23t5 -19t5.5 -17.5t5 -14.5t6.5 -15t6 -13t7.5 -14t7.5 -12.5t9 -15t9 -15.5q-18 -10 -109 -63t-150 -82t-110 -44q30 -16 63.5 -37t59.5 -38t66 -46t60.5 -44.5t68 -51t63.5 -47.5q-10 -15 -41 -55t-45 -72q-53 51 -92 87
t-78.5 66t-60 44.5t-72 48t-78.5 51.5v14q0 18 -3.5 60t-4.5 80z" />
    <glyph glyph-name="guilsinglright" unicode="&#x203a;" horiz-adv-x="649" 
d="M549 623q-1 -38 -4.5 -80t-3.5 -60v-14q-27 -18 -78.5 -51.5t-72 -48t-60 -44.5t-78.5 -66t-92 -87q-14 32 -45 72t-41 55q16 12 63.5 47.5t68 51t60.5 44.5t66 46t59.5 38t63.5 37q-51 15 -110 44t-150 82t-109 63q40 67 51 100q8 25 15 59q130 -125 200 -176.5
t197 -111.5z" />
    <glyph glyph-name="Euro" unicode="&#x20ac;" horiz-adv-x="1130" 
d="M305 750v-127q2 -2 27 -2h254q51 0 53 2q-12 -119 -96 -209q-42 -1 -119 -5.5t-111 -5.5q12 -89 71 -115t220 -26q115 0 232.5 18t193.5 39q12 -15 19.5 -26t14 -20t10.5 -21t7 -18.5t6.5 -23.5t5 -26.5t6 -36t7.5 -43.5q-67 -45 -282 -60t-550 -15q-94 0 -114 53.5
t-32 302.5q-1 9 -1 14q-50 0 -94 7v219h90v188q-86 -6 -123 -25q0 124 8 244q-1 0 14 -1t45 -3.5t58 -5.5q27 442 571 442q141 0 320 -28q-10 -117 -94 -199q-88 18 -197 18q-229 0 -391 -79q-14 -77 -19 -168q161 -7 285 -7q30 0 215 5q-18 -127 -100 -215l-408 24
q-2 -23 -2 -65z" />
    <glyph glyph-name="numero" unicode="&#x2116;" horiz-adv-x="1734" 
d="M1567 1362q39 -121 39 -320q0 -175 -56 -569q-115 -51 -258 -51q-156 0 -368 84q-26 168 -34.5 262t-8.5 254q0 166 149 389q178 0 294.5 -11.5t242.5 -37.5zM827 457q-27 -15 -114 -15q-24 0 -78 4q-129 239 -291 465q0 -135 4 -263t4 -193q-54 -13 -114 -13
q-34 0 -95 7q27 159 27 372q0 69 -4 202t-4 202q0 71 12 170q27 -7 54 -15t38 -11t13 -3q-1 0 4.5 1t19 3.5t31.5 5.5q65 -158 152.5 -308.5t175.5 -258.5q2 2 2 41q0 99 -23 312t-23 220q46 -6 93 -6q67 0 116 10q-6 -39 -6 -180v-121q0 -101 1.5 -248t3 -257.5t1.5 -122.5
zM1421 1194q-122 27 -250 27q-14 0 -31.5 -3.5t-19.5 -3.5q-69 -192 -69 -387q0 -69 24.5 -116t79.5 -47h133q26 0 88 4q49 165 49 391q0 21 -4 135zM1556 315v-225q-56 -6 -141 -6q-86 0 -490.5 18.5t-496.5 18.5q-200 0 -301 -29v51q0 119 12 201q-7 0 103 -7t253.5 -14.5
t219.5 -7.5h841z" />
    <glyph glyph-name="trademark" unicode="&#x2122;" horiz-adv-x="1423" 
d="M391 592l-133 2q14 137 14 321q0 167 -6 218q-2 2 -22 2h-25q-87 0 -147 -7q6 54 6 62q0 7 -1 26.5t-1 26.5q2 -2 26 -2h338q52 0 146 4q-1 -10 -2.5 -27.5t-2.5 -30t-1 -18.5q0 -5 1 -22t1 -19q-82 9 -140 9q-23 0 -59 -4q-6 -47 -6 -201q0 -125 14 -340zM1026 596
l-108 10q-64 214 -187 424q-2 -2 -2 -31v-108q0 -165 14 -299h-127q19 296 19 459v166q0 20 -2 22q36 -4 45 -4h59q7 0 43 4q85 -242 207 -463q106 195 191 461q30 10 65 10q42 0 78 -8q-6 -115 -6 -301q0 -208 20 -348q-3 0 -24.5 1t-30.5 1q-7 0 -37 -1t-45 -1
q8 164 8 299v98q0 29 -2 31q-126 -238 -178 -422z" />
    <glyph glyph-name="flower" horiz-adv-x="2048" 
d="M1683 1026q0 -74 -62.5 -130t-172.5 -81q93 -29 154 -105t61 -165q0 -109 -94 -171.5t-250 -62.5q-51 0 -122.5 34.5t-86.5 68.5v-13q0 -108 -96 -188t-223 -80q-115 0 -176.5 70t-61.5 190q0 76 14 125q-65 -47 -127 -47q-70 0 -113.5 53.5t-43.5 128.5q0 178 200 277
q-75 112 -75 215q0 92 67 153.5t164 61.5q106 0 170 -70q12 122 125 209.5t252 87.5q106 0 170.5 -56.5t64.5 -154.5q0 -64 -41 -176q21 8 76 8q93 0 160 -53t67 -129zM1315 1303q0 99 -43.5 158t-120.5 59q-105 0 -181.5 -98.5t-76.5 -229.5q0 -145 139 -145
q102 0 192.5 78t90.5 178zM1544 993q0 133 -123 133q-128 0 -323 -133q9 -11 20 -50.5t20 -72t17 -32.5q15 0 57.5 9t44.5 9q21 2 58.5 5.5t59 5.5t52 7.5t48.5 14t35.5 22t25.5 34t8 48.5zM1532 539q0 104 -91.5 171.5t-226.5 67.5q-52 0 -106.5 -48t-54.5 -101
q0 -86 91.5 -145.5t211.5 -59.5q176 0 176 115zM817 1118q-30 99 -73 137.5t-119 38.5q-87 0 -118.5 -25.5t-31.5 -94.5q0 -72 46.5 -127.5t109.5 -55.5q37 0 94.5 36t91.5 91zM1090 844q0 76 -56 124t-137 48q-156 0 -156 -150q0 -182 164 -182q80 0 132.5 43.5t52.5 116.5
zM688 727l-39 191q-41 -44 -114 -64q-104 -32 -139.5 -71t-35.5 -117q0 -91 82 -91q58 0 138 49.5t108 102.5zM995 389q0 221 -237 221q-32 0 -61 -61t-29 -121q0 -174 123 -174q204 0 204 135z" />
    </font>
</defs>
</svg>
